G04 #@! TF.FileFunction,Copper,L2,Bot,Signal*
%FSLAX46Y46*%
G04 Gerber Fmt 4.6, Leading zero omitted, Abs format (unit mm)*
G04 Created by KiCad (PCBNEW 4.0.6) date Thursday, 20. September 2018 19:48:34*
%MOMM*%
%LPD*%
G01*
G04 APERTURE LIST*
%ADD10C,0.100000*%
%ADD11R,1.100000X2.500000*%
%ADD12R,2.500000X1.100000*%
%ADD13R,1.700000X1.700000*%
%ADD14O,1.700000X1.700000*%
%ADD15R,1.300000X0.700000*%
%ADD16C,1.524000*%
%ADD17C,1.800000*%
%ADD18C,0.600000*%
%ADD19C,0.250000*%
%ADD20C,2.000000*%
%ADD21C,0.254000*%
G04 APERTURE END LIST*
D10*
D11*
X145034000Y-116775000D03*
X147034000Y-116775000D03*
X149034000Y-116775000D03*
X151034000Y-116775000D03*
X153034000Y-116775000D03*
X155034000Y-116775000D03*
X157034000Y-116775000D03*
X159034000Y-116775000D03*
X159034000Y-132175000D03*
X157034000Y-132175000D03*
X155034000Y-132175000D03*
X153034000Y-132175000D03*
X151034000Y-132175000D03*
X149034000Y-132175000D03*
X147034000Y-132175000D03*
X145034000Y-132175000D03*
D12*
X160734000Y-119465000D03*
X160734000Y-121465000D03*
X160734000Y-123465000D03*
X160734000Y-125465000D03*
X160734000Y-127465000D03*
X160734000Y-129465000D03*
D13*
X128778000Y-117729000D03*
D14*
X128778000Y-115189000D03*
D13*
X128778000Y-133223000D03*
D14*
X128778000Y-130683000D03*
D13*
X128778000Y-112268000D03*
D14*
X128778000Y-109728000D03*
X128778000Y-107188000D03*
X128778000Y-104648000D03*
X128778000Y-102108000D03*
X128778000Y-99568000D03*
D15*
X163322000Y-128458000D03*
X163322000Y-126558000D03*
X163322000Y-120462000D03*
X163322000Y-122362000D03*
X155092400Y-112537200D03*
X155092400Y-114437200D03*
X157022800Y-112537200D03*
X157022800Y-114437200D03*
D13*
X128676400Y-121767600D03*
D14*
X128676400Y-124307600D03*
X128676400Y-126847600D03*
D16*
X162702400Y-107950000D03*
X157622400Y-107950000D03*
X147442400Y-107950000D03*
X144902400Y-107950000D03*
X144891600Y-112064800D03*
X149971600Y-112064800D03*
X160151600Y-112064800D03*
X162691600Y-112064800D03*
X132620000Y-121960000D03*
X132620000Y-126960000D03*
X162020000Y-116760000D03*
X162020000Y-132160000D03*
D17*
X138049000Y-101473000D03*
X132969000Y-101473000D03*
X151638000Y-101498400D03*
X146558000Y-101498400D03*
X161798000Y-101473000D03*
X156718000Y-101473000D03*
D18*
X157988000Y-131475000D03*
X163322000Y-124460000D03*
X153162000Y-123952000D03*
X145034000Y-123317000D03*
X146939000Y-124079000D03*
X155702000Y-124714000D03*
X158496000Y-120015000D03*
X151257000Y-125349000D03*
X155092400Y-111810800D03*
X157022800Y-111810800D03*
X149098000Y-123444000D03*
D19*
X157034000Y-131475000D02*
X157988000Y-131475000D01*
X157988000Y-131475000D02*
X159034000Y-131475000D01*
X163322000Y-122362000D02*
X163322000Y-124460000D01*
X163322000Y-124460000D02*
X163322000Y-126539000D01*
X163322000Y-122381000D02*
X163322000Y-124460000D01*
X128778000Y-117729000D02*
X128778000Y-117709398D01*
X128778000Y-117709398D02*
X130256998Y-116230400D01*
X130256998Y-116230400D02*
X130256998Y-106126998D01*
X130256998Y-106126998D02*
X128778000Y-104648000D01*
X162020000Y-132160000D02*
X161878000Y-132160000D01*
X161878000Y-132160000D02*
X160172400Y-130454400D01*
X160172400Y-130454400D02*
X156054600Y-130454400D01*
X156054600Y-130454400D02*
X155034000Y-131475000D01*
X145034000Y-123317000D02*
X145034000Y-131475000D01*
X147034000Y-124174000D02*
X147034000Y-124206000D01*
X146939000Y-124079000D02*
X147034000Y-124174000D01*
X147034000Y-124206000D02*
X147034000Y-131475000D01*
X157607000Y-120142000D02*
X158496000Y-121031000D01*
X158496000Y-121031000D02*
X158496000Y-123825000D01*
X159131000Y-128397000D02*
X157861000Y-128397000D01*
X155702000Y-126238000D02*
X155702000Y-124714000D01*
X157861000Y-128397000D02*
X155702000Y-126238000D01*
X152939000Y-119380000D02*
X151034000Y-117475000D01*
X156845000Y-119380000D02*
X152939000Y-119380000D01*
X157607000Y-120142000D02*
X156845000Y-119380000D01*
X159131000Y-128397000D02*
X163261000Y-128397000D01*
X158496000Y-127762000D02*
X158496000Y-123825000D01*
X159131000Y-128397000D02*
X158496000Y-127762000D01*
X163261000Y-128397000D02*
X163322000Y-128458000D01*
X159004000Y-120523000D02*
X158496000Y-120015000D01*
X158496000Y-120015000D02*
X157226000Y-118745000D01*
X157226000Y-118745000D02*
X154304000Y-118745000D01*
X154304000Y-118745000D02*
X153034000Y-117475000D01*
X159004000Y-120523000D02*
X163261000Y-120523000D01*
X163261000Y-120523000D02*
X163322000Y-120462000D01*
D20*
X156718000Y-101473000D02*
X156718000Y-107045600D01*
X156718000Y-107045600D02*
X157622400Y-107950000D01*
X161798000Y-101473000D02*
X161798000Y-107045600D01*
X161798000Y-107045600D02*
X162702400Y-107950000D01*
X144891600Y-112064800D02*
X143611600Y-112064800D01*
X141528800Y-106527600D02*
X146558000Y-101498400D01*
X141528800Y-109982000D02*
X141528800Y-106527600D01*
X143611600Y-112064800D02*
X141528800Y-109982000D01*
X151638000Y-101498400D02*
X151638000Y-110398400D01*
X151638000Y-110398400D02*
X149971600Y-112064800D01*
X132882000Y-101473000D02*
X132882000Y-121698000D01*
X132882000Y-121698000D02*
X132620000Y-121960000D01*
X132620000Y-126960000D02*
X132882000Y-126960000D01*
X132882000Y-126960000D02*
X136382002Y-123459998D01*
X136382002Y-123459998D02*
X136382002Y-102972998D01*
X136382002Y-102972998D02*
X137882000Y-101473000D01*
D19*
X155092400Y-114437200D02*
X155092400Y-117416600D01*
X155092400Y-117416600D02*
X155034000Y-117475000D01*
X157022800Y-114437200D02*
X157022800Y-117463800D01*
X157022800Y-117463800D02*
X157034000Y-117475000D01*
X151257000Y-128270000D02*
X151257000Y-125349000D01*
X153034000Y-131475000D02*
X153034000Y-130047000D01*
X153034000Y-130047000D02*
X151257000Y-128270000D01*
X153035000Y-131474000D02*
X153034000Y-131475000D01*
X155092400Y-112537200D02*
X155092400Y-111810800D01*
X157022800Y-112537200D02*
X157022800Y-111810800D01*
X149098000Y-123444000D02*
X149098000Y-129159000D01*
X149098000Y-129159000D02*
X151034000Y-131095000D01*
X151034000Y-131095000D02*
X151034000Y-131475000D01*
D21*
G36*
X162672000Y-129455440D02*
X163628000Y-129455440D01*
X163628000Y-133910000D01*
X160002946Y-133910000D01*
X160035441Y-133889090D01*
X160180431Y-133676890D01*
X160231440Y-133425000D01*
X160231440Y-133140213D01*
X161219392Y-133140213D01*
X161288857Y-133382397D01*
X161812302Y-133569144D01*
X162367368Y-133541362D01*
X162751143Y-133382397D01*
X162820608Y-133140213D01*
X162020000Y-132339605D01*
X161219392Y-133140213D01*
X160231440Y-133140213D01*
X160231440Y-131952302D01*
X160610856Y-131952302D01*
X160638638Y-132507368D01*
X160797603Y-132891143D01*
X161039787Y-132960608D01*
X161840395Y-132160000D01*
X162199605Y-132160000D01*
X163000213Y-132960608D01*
X163242397Y-132891143D01*
X163429144Y-132367698D01*
X163401362Y-131812632D01*
X163242397Y-131428857D01*
X163000213Y-131359392D01*
X162199605Y-132160000D01*
X161840395Y-132160000D01*
X161039787Y-131359392D01*
X160797603Y-131428857D01*
X160610856Y-131952302D01*
X160231440Y-131952302D01*
X160231440Y-131179787D01*
X161219392Y-131179787D01*
X162020000Y-131980395D01*
X162820608Y-131179787D01*
X162751143Y-130937603D01*
X162227698Y-130750856D01*
X161672632Y-130778638D01*
X161288857Y-130937603D01*
X161219392Y-131179787D01*
X160231440Y-131179787D01*
X160231440Y-130925000D01*
X160187162Y-130689683D01*
X160169632Y-130662440D01*
X161984000Y-130662440D01*
X162219317Y-130618162D01*
X162435441Y-130479090D01*
X162580431Y-130266890D01*
X162631440Y-130015000D01*
X162631440Y-129447226D01*
X162672000Y-129455440D01*
X162672000Y-129455440D01*
G37*
X162672000Y-129455440D02*
X163628000Y-129455440D01*
X163628000Y-133910000D01*
X160002946Y-133910000D01*
X160035441Y-133889090D01*
X160180431Y-133676890D01*
X160231440Y-133425000D01*
X160231440Y-133140213D01*
X161219392Y-133140213D01*
X161288857Y-133382397D01*
X161812302Y-133569144D01*
X162367368Y-133541362D01*
X162751143Y-133382397D01*
X162820608Y-133140213D01*
X162020000Y-132339605D01*
X161219392Y-133140213D01*
X160231440Y-133140213D01*
X160231440Y-131952302D01*
X160610856Y-131952302D01*
X160638638Y-132507368D01*
X160797603Y-132891143D01*
X161039787Y-132960608D01*
X161840395Y-132160000D01*
X162199605Y-132160000D01*
X163000213Y-132960608D01*
X163242397Y-132891143D01*
X163429144Y-132367698D01*
X163401362Y-131812632D01*
X163242397Y-131428857D01*
X163000213Y-131359392D01*
X162199605Y-132160000D01*
X161840395Y-132160000D01*
X161039787Y-131359392D01*
X160797603Y-131428857D01*
X160610856Y-131952302D01*
X160231440Y-131952302D01*
X160231440Y-131179787D01*
X161219392Y-131179787D01*
X162020000Y-131980395D01*
X162820608Y-131179787D01*
X162751143Y-130937603D01*
X162227698Y-130750856D01*
X161672632Y-130778638D01*
X161288857Y-130937603D01*
X161219392Y-131179787D01*
X160231440Y-131179787D01*
X160231440Y-130925000D01*
X160187162Y-130689683D01*
X160169632Y-130662440D01*
X161984000Y-130662440D01*
X162219317Y-130618162D01*
X162435441Y-130479090D01*
X162580431Y-130266890D01*
X162631440Y-130015000D01*
X162631440Y-129447226D01*
X162672000Y-129455440D01*
G36*
X154290968Y-108050910D02*
X154860430Y-108903170D01*
X155764831Y-109807570D01*
X156617090Y-110377032D01*
X157622400Y-110577001D01*
X158627710Y-110377032D01*
X159479970Y-109807570D01*
X160026656Y-108989396D01*
X160844831Y-109807570D01*
X161697090Y-110377032D01*
X162702400Y-110577001D01*
X163628000Y-110392887D01*
X163628000Y-111025453D01*
X163483970Y-110881171D01*
X162970700Y-110668043D01*
X162414939Y-110667558D01*
X161901297Y-110879790D01*
X161507971Y-111272430D01*
X161421651Y-111480312D01*
X161336610Y-111274497D01*
X160943970Y-110881171D01*
X160430700Y-110668043D01*
X159874939Y-110667558D01*
X159361297Y-110879790D01*
X158967971Y-111272430D01*
X158754843Y-111785700D01*
X158754358Y-112341461D01*
X158966590Y-112855103D01*
X159359230Y-113248429D01*
X159872500Y-113461557D01*
X160428261Y-113462042D01*
X160941903Y-113249810D01*
X161335229Y-112857170D01*
X161421549Y-112649288D01*
X161506590Y-112855103D01*
X161899230Y-113248429D01*
X162412500Y-113461557D01*
X162968261Y-113462042D01*
X163481903Y-113249810D01*
X163628000Y-113103968D01*
X163628000Y-119464560D01*
X162672000Y-119464560D01*
X162631440Y-119472192D01*
X162631440Y-118915000D01*
X162587162Y-118679683D01*
X162448090Y-118463559D01*
X162235890Y-118318569D01*
X161984000Y-118267560D01*
X160170847Y-118267560D01*
X160219000Y-118151309D01*
X160219000Y-117060750D01*
X160194911Y-117036661D01*
X160622758Y-117036661D01*
X160834990Y-117550303D01*
X161227630Y-117943629D01*
X161740900Y-118156757D01*
X162296661Y-118157242D01*
X162810303Y-117945010D01*
X163203629Y-117552370D01*
X163416757Y-117039100D01*
X163417242Y-116483339D01*
X163205010Y-115969697D01*
X162812370Y-115576371D01*
X162299100Y-115363243D01*
X161743339Y-115362758D01*
X161229697Y-115574990D01*
X160836371Y-115967630D01*
X160623243Y-116480900D01*
X160622758Y-117036661D01*
X160194911Y-117036661D01*
X160060250Y-116902000D01*
X159161000Y-116902000D01*
X159161000Y-116922000D01*
X158907000Y-116922000D01*
X158907000Y-116902000D01*
X158887000Y-116902000D01*
X158887000Y-116648000D01*
X158907000Y-116648000D01*
X158907000Y-115048750D01*
X159161000Y-115048750D01*
X159161000Y-116648000D01*
X160060250Y-116648000D01*
X160219000Y-116489250D01*
X160219000Y-115398691D01*
X160122327Y-115165302D01*
X159943699Y-114986673D01*
X159710310Y-114890000D01*
X159319750Y-114890000D01*
X159161000Y-115048750D01*
X158907000Y-115048750D01*
X158748250Y-114890000D01*
X158357690Y-114890000D01*
X158294087Y-114916345D01*
X158320240Y-114787200D01*
X158320240Y-114087200D01*
X158275962Y-113851883D01*
X158136890Y-113635759D01*
X157924690Y-113490769D01*
X157911603Y-113488119D01*
X158124241Y-113351290D01*
X158269231Y-113139090D01*
X158320240Y-112887200D01*
X158320240Y-112187200D01*
X158275962Y-111951883D01*
X158136890Y-111735759D01*
X157950978Y-111608731D01*
X157815917Y-111281857D01*
X157553127Y-111018608D01*
X157209599Y-110875962D01*
X156837633Y-110875638D01*
X156493857Y-111017683D01*
X156230608Y-111280473D01*
X156092550Y-111612951D01*
X156058666Y-111634755D01*
X156020578Y-111608731D01*
X155885517Y-111281857D01*
X155622727Y-111018608D01*
X155279199Y-110875962D01*
X154907233Y-110875638D01*
X154563457Y-111017683D01*
X154300208Y-111280473D01*
X154162150Y-111612951D01*
X153990959Y-111723110D01*
X153845969Y-111935310D01*
X153794960Y-112187200D01*
X153794960Y-112887200D01*
X153839238Y-113122517D01*
X153978310Y-113338641D01*
X154190510Y-113483631D01*
X154203597Y-113486281D01*
X153990959Y-113623110D01*
X153845969Y-113835310D01*
X153794960Y-114087200D01*
X153794960Y-114787200D01*
X153820993Y-114925552D01*
X153584000Y-114877560D01*
X152484000Y-114877560D01*
X152248683Y-114921838D01*
X152032559Y-115060910D01*
X152031610Y-115062299D01*
X151835890Y-114928569D01*
X151584000Y-114877560D01*
X150484000Y-114877560D01*
X150248683Y-114921838D01*
X150032559Y-115060910D01*
X150026623Y-115069598D01*
X149943699Y-114986673D01*
X149710310Y-114890000D01*
X149319750Y-114890000D01*
X149161000Y-115048750D01*
X149161000Y-116648000D01*
X149181000Y-116648000D01*
X149181000Y-116902000D01*
X149161000Y-116902000D01*
X149161000Y-118501250D01*
X149319750Y-118660000D01*
X149710310Y-118660000D01*
X149943699Y-118563327D01*
X150026252Y-118480774D01*
X150232110Y-118621431D01*
X150484000Y-118672440D01*
X151156638Y-118672440D01*
X152401599Y-119917401D01*
X152648161Y-120082148D01*
X152939000Y-120140000D01*
X156530198Y-120140000D01*
X157736000Y-121345802D01*
X157736000Y-127197198D01*
X156462000Y-125923198D01*
X156462000Y-125276463D01*
X156494192Y-125244327D01*
X156636838Y-124900799D01*
X156637162Y-124528833D01*
X156495117Y-124185057D01*
X156232327Y-123921808D01*
X155888799Y-123779162D01*
X155516833Y-123778838D01*
X155173057Y-123920883D01*
X154909808Y-124183673D01*
X154767162Y-124527201D01*
X154766838Y-124899167D01*
X154908883Y-125242943D01*
X154942000Y-125276118D01*
X154942000Y-126238000D01*
X154999852Y-126528839D01*
X155164599Y-126775401D01*
X157323599Y-128934401D01*
X157570161Y-129099148D01*
X157861000Y-129157000D01*
X158836560Y-129157000D01*
X158836560Y-130015000D01*
X158880838Y-130250317D01*
X158898368Y-130277560D01*
X158484000Y-130277560D01*
X158248683Y-130321838D01*
X158032559Y-130460910D01*
X158031610Y-130462299D01*
X157835890Y-130328569D01*
X157584000Y-130277560D01*
X156484000Y-130277560D01*
X156248683Y-130321838D01*
X156032559Y-130460910D01*
X156026623Y-130469598D01*
X155943699Y-130386673D01*
X155710310Y-130290000D01*
X155319750Y-130290000D01*
X155161000Y-130448750D01*
X155161000Y-132048000D01*
X155181000Y-132048000D01*
X155181000Y-132302000D01*
X155161000Y-132302000D01*
X155161000Y-132322000D01*
X154907000Y-132322000D01*
X154907000Y-132302000D01*
X154887000Y-132302000D01*
X154887000Y-132048000D01*
X154907000Y-132048000D01*
X154907000Y-130448750D01*
X154748250Y-130290000D01*
X154357690Y-130290000D01*
X154124301Y-130386673D01*
X154041748Y-130469226D01*
X153835890Y-130328569D01*
X153794000Y-130320086D01*
X153794000Y-130047000D01*
X153736148Y-129756161D01*
X153653819Y-129632946D01*
X153571402Y-129509599D01*
X152017000Y-127955198D01*
X152017000Y-125911463D01*
X152049192Y-125879327D01*
X152191838Y-125535799D01*
X152192162Y-125163833D01*
X152050117Y-124820057D01*
X151787327Y-124556808D01*
X151443799Y-124414162D01*
X151071833Y-124413838D01*
X150728057Y-124555883D01*
X150464808Y-124818673D01*
X150322162Y-125162201D01*
X150321838Y-125534167D01*
X150463883Y-125877943D01*
X150497000Y-125911118D01*
X150497000Y-128270000D01*
X150554852Y-128560839D01*
X150719599Y-128807401D01*
X152239770Y-130327573D01*
X152032559Y-130460910D01*
X152031610Y-130462299D01*
X151835890Y-130328569D01*
X151584000Y-130277560D01*
X151291362Y-130277560D01*
X149858000Y-128844198D01*
X149858000Y-124006463D01*
X149890192Y-123974327D01*
X150032838Y-123630799D01*
X150033162Y-123258833D01*
X149891117Y-122915057D01*
X149628327Y-122651808D01*
X149284799Y-122509162D01*
X148912833Y-122508838D01*
X148569057Y-122650883D01*
X148305808Y-122913673D01*
X148163162Y-123257201D01*
X148162838Y-123629167D01*
X148304883Y-123972943D01*
X148338000Y-124006118D01*
X148338000Y-129159000D01*
X148395852Y-129449839D01*
X148560599Y-129696401D01*
X149141758Y-130277560D01*
X148484000Y-130277560D01*
X148248683Y-130321838D01*
X148032559Y-130460910D01*
X148031610Y-130462299D01*
X147835890Y-130328569D01*
X147794000Y-130320086D01*
X147794000Y-124458069D01*
X147873838Y-124265799D01*
X147874162Y-123893833D01*
X147732117Y-123550057D01*
X147469327Y-123286808D01*
X147125799Y-123144162D01*
X146753833Y-123143838D01*
X146410057Y-123285883D01*
X146146808Y-123548673D01*
X146004162Y-123892201D01*
X146003838Y-124264167D01*
X146145883Y-124607943D01*
X146274000Y-124736284D01*
X146274000Y-130317074D01*
X146248683Y-130321838D01*
X146032559Y-130460910D01*
X146031610Y-130462299D01*
X145835890Y-130328569D01*
X145794000Y-130320086D01*
X145794000Y-123879463D01*
X145826192Y-123847327D01*
X145968838Y-123503799D01*
X145969162Y-123131833D01*
X145827117Y-122788057D01*
X145564327Y-122524808D01*
X145220799Y-122382162D01*
X144848833Y-122381838D01*
X144505057Y-122523883D01*
X144241808Y-122786673D01*
X144099162Y-123130201D01*
X144098838Y-123502167D01*
X144240883Y-123845943D01*
X144274000Y-123879118D01*
X144274000Y-130317074D01*
X144248683Y-130321838D01*
X144032559Y-130460910D01*
X143887569Y-130673110D01*
X143836560Y-130925000D01*
X143836560Y-133425000D01*
X143880838Y-133660317D01*
X144019910Y-133876441D01*
X144069025Y-133910000D01*
X130263000Y-133910000D01*
X130263000Y-133508750D01*
X130104250Y-133350000D01*
X128905000Y-133350000D01*
X128905000Y-133370000D01*
X128651000Y-133370000D01*
X128651000Y-133350000D01*
X128631000Y-133350000D01*
X128631000Y-133096000D01*
X128651000Y-133096000D01*
X128651000Y-133076000D01*
X128905000Y-133076000D01*
X128905000Y-133096000D01*
X130104250Y-133096000D01*
X130263000Y-132937250D01*
X130263000Y-132246690D01*
X130166327Y-132013301D01*
X129987698Y-131834673D01*
X129813223Y-131762403D01*
X129857147Y-131733054D01*
X130179054Y-131251285D01*
X130292093Y-130683000D01*
X130179054Y-130114715D01*
X129857147Y-129632946D01*
X129375378Y-129311039D01*
X128807093Y-129198000D01*
X128748907Y-129198000D01*
X128180622Y-129311039D01*
X127964000Y-129455781D01*
X127964000Y-128142706D01*
X128079022Y-128219561D01*
X128647307Y-128332600D01*
X128705493Y-128332600D01*
X129273778Y-128219561D01*
X129755547Y-127897654D01*
X130077454Y-127415885D01*
X130080567Y-127400232D01*
X130192968Y-127965309D01*
X130762430Y-128817570D01*
X131614691Y-129387032D01*
X132620000Y-129587000D01*
X132881995Y-129587000D01*
X132882000Y-129587001D01*
X133887310Y-129387032D01*
X134739570Y-128817570D01*
X138239569Y-125317570D01*
X138239572Y-125317568D01*
X138809034Y-124465307D01*
X139009002Y-123459998D01*
X139009002Y-115525000D01*
X143836560Y-115525000D01*
X143836560Y-118025000D01*
X143880838Y-118260317D01*
X144019910Y-118476441D01*
X144232110Y-118621431D01*
X144484000Y-118672440D01*
X145584000Y-118672440D01*
X145819317Y-118628162D01*
X146035441Y-118489090D01*
X146036390Y-118487701D01*
X146232110Y-118621431D01*
X146484000Y-118672440D01*
X147584000Y-118672440D01*
X147819317Y-118628162D01*
X148035441Y-118489090D01*
X148041377Y-118480402D01*
X148124301Y-118563327D01*
X148357690Y-118660000D01*
X148748250Y-118660000D01*
X148907000Y-118501250D01*
X148907000Y-116902000D01*
X148887000Y-116902000D01*
X148887000Y-116648000D01*
X148907000Y-116648000D01*
X148907000Y-115048750D01*
X148748250Y-114890000D01*
X148357690Y-114890000D01*
X148124301Y-114986673D01*
X148041748Y-115069226D01*
X147835890Y-114928569D01*
X147584000Y-114877560D01*
X146484000Y-114877560D01*
X146248683Y-114921838D01*
X146032559Y-115060910D01*
X146031610Y-115062299D01*
X145835890Y-114928569D01*
X145584000Y-114877560D01*
X144484000Y-114877560D01*
X144248683Y-114921838D01*
X144032559Y-115060910D01*
X143887569Y-115273110D01*
X143836560Y-115525000D01*
X139009002Y-115525000D01*
X139009002Y-110520945D01*
X139101768Y-110987310D01*
X139671230Y-111839570D01*
X141754030Y-113922370D01*
X142606290Y-114491832D01*
X143611600Y-114691801D01*
X143611605Y-114691800D01*
X144891600Y-114691800D01*
X145896909Y-114491832D01*
X146749170Y-113922370D01*
X147318632Y-113070109D01*
X147431600Y-112502181D01*
X147544568Y-113070110D01*
X148114030Y-113922370D01*
X148966290Y-114491832D01*
X149971600Y-114691801D01*
X150976910Y-114491832D01*
X151829170Y-113922370D01*
X153495567Y-112255972D01*
X153495570Y-112255970D01*
X154065032Y-111403709D01*
X154265000Y-110398400D01*
X154265000Y-107920360D01*
X154290968Y-108050910D01*
X154290968Y-108050910D01*
G37*
X154290968Y-108050910D02*
X154860430Y-108903170D01*
X155764831Y-109807570D01*
X156617090Y-110377032D01*
X157622400Y-110577001D01*
X158627710Y-110377032D01*
X159479970Y-109807570D01*
X160026656Y-108989396D01*
X160844831Y-109807570D01*
X161697090Y-110377032D01*
X162702400Y-110577001D01*
X163628000Y-110392887D01*
X163628000Y-111025453D01*
X163483970Y-110881171D01*
X162970700Y-110668043D01*
X162414939Y-110667558D01*
X161901297Y-110879790D01*
X161507971Y-111272430D01*
X161421651Y-111480312D01*
X161336610Y-111274497D01*
X160943970Y-110881171D01*
X160430700Y-110668043D01*
X159874939Y-110667558D01*
X159361297Y-110879790D01*
X158967971Y-111272430D01*
X158754843Y-111785700D01*
X158754358Y-112341461D01*
X158966590Y-112855103D01*
X159359230Y-113248429D01*
X159872500Y-113461557D01*
X160428261Y-113462042D01*
X160941903Y-113249810D01*
X161335229Y-112857170D01*
X161421549Y-112649288D01*
X161506590Y-112855103D01*
X161899230Y-113248429D01*
X162412500Y-113461557D01*
X162968261Y-113462042D01*
X163481903Y-113249810D01*
X163628000Y-113103968D01*
X163628000Y-119464560D01*
X162672000Y-119464560D01*
X162631440Y-119472192D01*
X162631440Y-118915000D01*
X162587162Y-118679683D01*
X162448090Y-118463559D01*
X162235890Y-118318569D01*
X161984000Y-118267560D01*
X160170847Y-118267560D01*
X160219000Y-118151309D01*
X160219000Y-117060750D01*
X160194911Y-117036661D01*
X160622758Y-117036661D01*
X160834990Y-117550303D01*
X161227630Y-117943629D01*
X161740900Y-118156757D01*
X162296661Y-118157242D01*
X162810303Y-117945010D01*
X163203629Y-117552370D01*
X163416757Y-117039100D01*
X163417242Y-116483339D01*
X163205010Y-115969697D01*
X162812370Y-115576371D01*
X162299100Y-115363243D01*
X161743339Y-115362758D01*
X161229697Y-115574990D01*
X160836371Y-115967630D01*
X160623243Y-116480900D01*
X160622758Y-117036661D01*
X160194911Y-117036661D01*
X160060250Y-116902000D01*
X159161000Y-116902000D01*
X159161000Y-116922000D01*
X158907000Y-116922000D01*
X158907000Y-116902000D01*
X158887000Y-116902000D01*
X158887000Y-116648000D01*
X158907000Y-116648000D01*
X158907000Y-115048750D01*
X159161000Y-115048750D01*
X159161000Y-116648000D01*
X160060250Y-116648000D01*
X160219000Y-116489250D01*
X160219000Y-115398691D01*
X160122327Y-115165302D01*
X159943699Y-114986673D01*
X159710310Y-114890000D01*
X159319750Y-114890000D01*
X159161000Y-115048750D01*
X158907000Y-115048750D01*
X158748250Y-114890000D01*
X158357690Y-114890000D01*
X158294087Y-114916345D01*
X158320240Y-114787200D01*
X158320240Y-114087200D01*
X158275962Y-113851883D01*
X158136890Y-113635759D01*
X157924690Y-113490769D01*
X157911603Y-113488119D01*
X158124241Y-113351290D01*
X158269231Y-113139090D01*
X158320240Y-112887200D01*
X158320240Y-112187200D01*
X158275962Y-111951883D01*
X158136890Y-111735759D01*
X157950978Y-111608731D01*
X157815917Y-111281857D01*
X157553127Y-111018608D01*
X157209599Y-110875962D01*
X156837633Y-110875638D01*
X156493857Y-111017683D01*
X156230608Y-111280473D01*
X156092550Y-111612951D01*
X156058666Y-111634755D01*
X156020578Y-111608731D01*
X155885517Y-111281857D01*
X155622727Y-111018608D01*
X155279199Y-110875962D01*
X154907233Y-110875638D01*
X154563457Y-111017683D01*
X154300208Y-111280473D01*
X154162150Y-111612951D01*
X153990959Y-111723110D01*
X153845969Y-111935310D01*
X153794960Y-112187200D01*
X153794960Y-112887200D01*
X153839238Y-113122517D01*
X153978310Y-113338641D01*
X154190510Y-113483631D01*
X154203597Y-113486281D01*
X153990959Y-113623110D01*
X153845969Y-113835310D01*
X153794960Y-114087200D01*
X153794960Y-114787200D01*
X153820993Y-114925552D01*
X153584000Y-114877560D01*
X152484000Y-114877560D01*
X152248683Y-114921838D01*
X152032559Y-115060910D01*
X152031610Y-115062299D01*
X151835890Y-114928569D01*
X151584000Y-114877560D01*
X150484000Y-114877560D01*
X150248683Y-114921838D01*
X150032559Y-115060910D01*
X150026623Y-115069598D01*
X149943699Y-114986673D01*
X149710310Y-114890000D01*
X149319750Y-114890000D01*
X149161000Y-115048750D01*
X149161000Y-116648000D01*
X149181000Y-116648000D01*
X149181000Y-116902000D01*
X149161000Y-116902000D01*
X149161000Y-118501250D01*
X149319750Y-118660000D01*
X149710310Y-118660000D01*
X149943699Y-118563327D01*
X150026252Y-118480774D01*
X150232110Y-118621431D01*
X150484000Y-118672440D01*
X151156638Y-118672440D01*
X152401599Y-119917401D01*
X152648161Y-120082148D01*
X152939000Y-120140000D01*
X156530198Y-120140000D01*
X157736000Y-121345802D01*
X157736000Y-127197198D01*
X156462000Y-125923198D01*
X156462000Y-125276463D01*
X156494192Y-125244327D01*
X156636838Y-124900799D01*
X156637162Y-124528833D01*
X156495117Y-124185057D01*
X156232327Y-123921808D01*
X155888799Y-123779162D01*
X155516833Y-123778838D01*
X155173057Y-123920883D01*
X154909808Y-124183673D01*
X154767162Y-124527201D01*
X154766838Y-124899167D01*
X154908883Y-125242943D01*
X154942000Y-125276118D01*
X154942000Y-126238000D01*
X154999852Y-126528839D01*
X155164599Y-126775401D01*
X157323599Y-128934401D01*
X157570161Y-129099148D01*
X157861000Y-129157000D01*
X158836560Y-129157000D01*
X158836560Y-130015000D01*
X158880838Y-130250317D01*
X158898368Y-130277560D01*
X158484000Y-130277560D01*
X158248683Y-130321838D01*
X158032559Y-130460910D01*
X158031610Y-130462299D01*
X157835890Y-130328569D01*
X157584000Y-130277560D01*
X156484000Y-130277560D01*
X156248683Y-130321838D01*
X156032559Y-130460910D01*
X156026623Y-130469598D01*
X155943699Y-130386673D01*
X155710310Y-130290000D01*
X155319750Y-130290000D01*
X155161000Y-130448750D01*
X155161000Y-132048000D01*
X155181000Y-132048000D01*
X155181000Y-132302000D01*
X155161000Y-132302000D01*
X155161000Y-132322000D01*
X154907000Y-132322000D01*
X154907000Y-132302000D01*
X154887000Y-132302000D01*
X154887000Y-132048000D01*
X154907000Y-132048000D01*
X154907000Y-130448750D01*
X154748250Y-130290000D01*
X154357690Y-130290000D01*
X154124301Y-130386673D01*
X154041748Y-130469226D01*
X153835890Y-130328569D01*
X153794000Y-130320086D01*
X153794000Y-130047000D01*
X153736148Y-129756161D01*
X153653819Y-129632946D01*
X153571402Y-129509599D01*
X152017000Y-127955198D01*
X152017000Y-125911463D01*
X152049192Y-125879327D01*
X152191838Y-125535799D01*
X152192162Y-125163833D01*
X152050117Y-124820057D01*
X151787327Y-124556808D01*
X151443799Y-124414162D01*
X151071833Y-124413838D01*
X150728057Y-124555883D01*
X150464808Y-124818673D01*
X150322162Y-125162201D01*
X150321838Y-125534167D01*
X150463883Y-125877943D01*
X150497000Y-125911118D01*
X150497000Y-128270000D01*
X150554852Y-128560839D01*
X150719599Y-128807401D01*
X152239770Y-130327573D01*
X152032559Y-130460910D01*
X152031610Y-130462299D01*
X151835890Y-130328569D01*
X151584000Y-130277560D01*
X151291362Y-130277560D01*
X149858000Y-128844198D01*
X149858000Y-124006463D01*
X149890192Y-123974327D01*
X150032838Y-123630799D01*
X150033162Y-123258833D01*
X149891117Y-122915057D01*
X149628327Y-122651808D01*
X149284799Y-122509162D01*
X148912833Y-122508838D01*
X148569057Y-122650883D01*
X148305808Y-122913673D01*
X148163162Y-123257201D01*
X148162838Y-123629167D01*
X148304883Y-123972943D01*
X148338000Y-124006118D01*
X148338000Y-129159000D01*
X148395852Y-129449839D01*
X148560599Y-129696401D01*
X149141758Y-130277560D01*
X148484000Y-130277560D01*
X148248683Y-130321838D01*
X148032559Y-130460910D01*
X148031610Y-130462299D01*
X147835890Y-130328569D01*
X147794000Y-130320086D01*
X147794000Y-124458069D01*
X147873838Y-124265799D01*
X147874162Y-123893833D01*
X147732117Y-123550057D01*
X147469327Y-123286808D01*
X147125799Y-123144162D01*
X146753833Y-123143838D01*
X146410057Y-123285883D01*
X146146808Y-123548673D01*
X146004162Y-123892201D01*
X146003838Y-124264167D01*
X146145883Y-124607943D01*
X146274000Y-124736284D01*
X146274000Y-130317074D01*
X146248683Y-130321838D01*
X146032559Y-130460910D01*
X146031610Y-130462299D01*
X145835890Y-130328569D01*
X145794000Y-130320086D01*
X145794000Y-123879463D01*
X145826192Y-123847327D01*
X145968838Y-123503799D01*
X145969162Y-123131833D01*
X145827117Y-122788057D01*
X145564327Y-122524808D01*
X145220799Y-122382162D01*
X144848833Y-122381838D01*
X144505057Y-122523883D01*
X144241808Y-122786673D01*
X144099162Y-123130201D01*
X144098838Y-123502167D01*
X144240883Y-123845943D01*
X144274000Y-123879118D01*
X144274000Y-130317074D01*
X144248683Y-130321838D01*
X144032559Y-130460910D01*
X143887569Y-130673110D01*
X143836560Y-130925000D01*
X143836560Y-133425000D01*
X143880838Y-133660317D01*
X144019910Y-133876441D01*
X144069025Y-133910000D01*
X130263000Y-133910000D01*
X130263000Y-133508750D01*
X130104250Y-133350000D01*
X128905000Y-133350000D01*
X128905000Y-133370000D01*
X128651000Y-133370000D01*
X128651000Y-133350000D01*
X128631000Y-133350000D01*
X128631000Y-133096000D01*
X128651000Y-133096000D01*
X128651000Y-133076000D01*
X128905000Y-133076000D01*
X128905000Y-133096000D01*
X130104250Y-133096000D01*
X130263000Y-132937250D01*
X130263000Y-132246690D01*
X130166327Y-132013301D01*
X129987698Y-131834673D01*
X129813223Y-131762403D01*
X129857147Y-131733054D01*
X130179054Y-131251285D01*
X130292093Y-130683000D01*
X130179054Y-130114715D01*
X129857147Y-129632946D01*
X129375378Y-129311039D01*
X128807093Y-129198000D01*
X128748907Y-129198000D01*
X128180622Y-129311039D01*
X127964000Y-129455781D01*
X127964000Y-128142706D01*
X128079022Y-128219561D01*
X128647307Y-128332600D01*
X128705493Y-128332600D01*
X129273778Y-128219561D01*
X129755547Y-127897654D01*
X130077454Y-127415885D01*
X130080567Y-127400232D01*
X130192968Y-127965309D01*
X130762430Y-128817570D01*
X131614691Y-129387032D01*
X132620000Y-129587000D01*
X132881995Y-129587000D01*
X132882000Y-129587001D01*
X133887310Y-129387032D01*
X134739570Y-128817570D01*
X138239569Y-125317570D01*
X138239572Y-125317568D01*
X138809034Y-124465307D01*
X139009002Y-123459998D01*
X139009002Y-115525000D01*
X143836560Y-115525000D01*
X143836560Y-118025000D01*
X143880838Y-118260317D01*
X144019910Y-118476441D01*
X144232110Y-118621431D01*
X144484000Y-118672440D01*
X145584000Y-118672440D01*
X145819317Y-118628162D01*
X146035441Y-118489090D01*
X146036390Y-118487701D01*
X146232110Y-118621431D01*
X146484000Y-118672440D01*
X147584000Y-118672440D01*
X147819317Y-118628162D01*
X148035441Y-118489090D01*
X148041377Y-118480402D01*
X148124301Y-118563327D01*
X148357690Y-118660000D01*
X148748250Y-118660000D01*
X148907000Y-118501250D01*
X148907000Y-116902000D01*
X148887000Y-116902000D01*
X148887000Y-116648000D01*
X148907000Y-116648000D01*
X148907000Y-115048750D01*
X148748250Y-114890000D01*
X148357690Y-114890000D01*
X148124301Y-114986673D01*
X148041748Y-115069226D01*
X147835890Y-114928569D01*
X147584000Y-114877560D01*
X146484000Y-114877560D01*
X146248683Y-114921838D01*
X146032559Y-115060910D01*
X146031610Y-115062299D01*
X145835890Y-114928569D01*
X145584000Y-114877560D01*
X144484000Y-114877560D01*
X144248683Y-114921838D01*
X144032559Y-115060910D01*
X143887569Y-115273110D01*
X143836560Y-115525000D01*
X139009002Y-115525000D01*
X139009002Y-110520945D01*
X139101768Y-110987310D01*
X139671230Y-111839570D01*
X141754030Y-113922370D01*
X142606290Y-114491832D01*
X143611600Y-114691801D01*
X143611605Y-114691800D01*
X144891600Y-114691800D01*
X145896909Y-114491832D01*
X146749170Y-113922370D01*
X147318632Y-113070109D01*
X147431600Y-112502181D01*
X147544568Y-113070110D01*
X148114030Y-113922370D01*
X148966290Y-114491832D01*
X149971600Y-114691801D01*
X150976910Y-114491832D01*
X151829170Y-113922370D01*
X153495567Y-112255972D01*
X153495570Y-112255970D01*
X154065032Y-111403709D01*
X154265000Y-110398400D01*
X154265000Y-107920360D01*
X154290968Y-108050910D01*
G36*
X128905000Y-117602000D02*
X128925000Y-117602000D01*
X128925000Y-117856000D01*
X128905000Y-117856000D01*
X128905000Y-119055250D01*
X129063750Y-119214000D01*
X129754309Y-119214000D01*
X129987698Y-119117327D01*
X130166327Y-118938699D01*
X130255000Y-118724624D01*
X130255000Y-120861853D01*
X130192968Y-120954690D01*
X130161400Y-121113393D01*
X130161400Y-120791290D01*
X130064727Y-120557901D01*
X129886098Y-120379273D01*
X129652709Y-120282600D01*
X128962150Y-120282600D01*
X128803400Y-120441350D01*
X128803400Y-121640600D01*
X128823400Y-121640600D01*
X128823400Y-121894600D01*
X128803400Y-121894600D01*
X128803400Y-121914600D01*
X128549400Y-121914600D01*
X128549400Y-121894600D01*
X128529400Y-121894600D01*
X128529400Y-121640600D01*
X128549400Y-121640600D01*
X128549400Y-120441350D01*
X128390650Y-120282600D01*
X127964000Y-120282600D01*
X127964000Y-119214000D01*
X128492250Y-119214000D01*
X128651000Y-119055250D01*
X128651000Y-117856000D01*
X128631000Y-117856000D01*
X128631000Y-117602000D01*
X128651000Y-117602000D01*
X128651000Y-117582000D01*
X128905000Y-117582000D01*
X128905000Y-117602000D01*
X128905000Y-117602000D01*
G37*
X128905000Y-117602000D02*
X128925000Y-117602000D01*
X128925000Y-117856000D01*
X128905000Y-117856000D01*
X128905000Y-119055250D01*
X129063750Y-119214000D01*
X129754309Y-119214000D01*
X129987698Y-119117327D01*
X130166327Y-118938699D01*
X130255000Y-118724624D01*
X130255000Y-120861853D01*
X130192968Y-120954690D01*
X130161400Y-121113393D01*
X130161400Y-120791290D01*
X130064727Y-120557901D01*
X129886098Y-120379273D01*
X129652709Y-120282600D01*
X128962150Y-120282600D01*
X128803400Y-120441350D01*
X128803400Y-121640600D01*
X128823400Y-121640600D01*
X128823400Y-121894600D01*
X128803400Y-121894600D01*
X128803400Y-121914600D01*
X128549400Y-121914600D01*
X128549400Y-121894600D01*
X128529400Y-121894600D01*
X128529400Y-121640600D01*
X128549400Y-121640600D01*
X128549400Y-120441350D01*
X128390650Y-120282600D01*
X127964000Y-120282600D01*
X127964000Y-119214000D01*
X128492250Y-119214000D01*
X128651000Y-119055250D01*
X128651000Y-117856000D01*
X128631000Y-117856000D01*
X128631000Y-117602000D01*
X128651000Y-117602000D01*
X128651000Y-117582000D01*
X128905000Y-117582000D01*
X128905000Y-117602000D01*
G36*
X128905000Y-104521000D02*
X128925000Y-104521000D01*
X128925000Y-104775000D01*
X128905000Y-104775000D01*
X128905000Y-104795000D01*
X128651000Y-104795000D01*
X128651000Y-104775000D01*
X128631000Y-104775000D01*
X128631000Y-104521000D01*
X128651000Y-104521000D01*
X128651000Y-104501000D01*
X128905000Y-104501000D01*
X128905000Y-104521000D01*
X128905000Y-104521000D01*
G37*
X128905000Y-104521000D02*
X128925000Y-104521000D01*
X128925000Y-104775000D01*
X128905000Y-104775000D01*
X128905000Y-104795000D01*
X128651000Y-104795000D01*
X128651000Y-104775000D01*
X128631000Y-104775000D01*
X128631000Y-104521000D01*
X128651000Y-104521000D01*
X128651000Y-104501000D01*
X128905000Y-104501000D01*
X128905000Y-104521000D01*
M02*
