M48
;DRILL file {KiCad 4.0.6} date Thursday, 20. September 2018 19:48:53
;FORMAT={-:-/ absolute / inch / decimal}
FMAT,2
INCH,TZ
T1C0.016
T2C0.030
T3C0.039
%
G90
G05
M72
T1
X5.71Y-4.855
X5.785Y-4.885
X5.87Y-4.86
X5.955Y-4.935
X6.03Y-4.88
X6.106Y-4.402
X6.13Y-4.91
X6.182Y-4.402
X6.22Y-5.1762
X6.24Y-4.725
X6.43Y-4.9
T2
X5.2213Y-4.8016
X5.2213Y-4.9984
X5.7044Y-4.412
X5.7048Y-4.25
X5.8048Y-4.25
X5.9044Y-4.412
X6.2056Y-4.25
X6.3052Y-4.412
X6.3787Y-4.5969
X6.3787Y-5.2031
X6.4052Y-4.412
X6.4056Y-4.25
T3
X5.066Y-4.794
X5.066Y-4.894
X5.066Y-4.994
X5.07Y-3.92
X5.07Y-4.02
X5.07Y-4.12
X5.07Y-4.22
X5.07Y-4.32
X5.07Y-4.42
X5.07Y-4.535
X5.07Y-4.635
X5.07Y-5.145
X5.07Y-5.245
X5.235Y-3.995
X5.435Y-3.995
X5.77Y-3.996
X5.97Y-3.996
X6.17Y-3.995
X6.37Y-3.995
T0
M30
