G04 #@! TF.FileFunction,Copper,L1,Top,Signal*
%FSLAX46Y46*%
G04 Gerber Fmt 4.6, Leading zero omitted, Abs format (unit mm)*
G04 Created by KiCad (PCBNEW 4.0.6) date Saturday, 10. February 2018 20:56:55*
%MOMM*%
%LPD*%
G01*
G04 APERTURE LIST*
%ADD10C,0.100000*%
%ADD11C,1.524000*%
%ADD12R,1.700000X1.700000*%
%ADD13O,1.700000X1.700000*%
%ADD14C,1.800000*%
%ADD15R,0.700000X1.300000*%
%ADD16R,1.800000X1.100000*%
%ADD17C,0.600000*%
%ADD18C,0.250000*%
%ADD19C,0.254000*%
G04 APERTURE END LIST*
D10*
D11*
X162702400Y-107950000D03*
X157622400Y-107950000D03*
X147442400Y-107950000D03*
X144902400Y-107950000D03*
X132620000Y-121960000D03*
X132620000Y-126960000D03*
X162020000Y-116760000D03*
X162020000Y-132160000D03*
D12*
X128778000Y-117729000D03*
D13*
X128778000Y-115189000D03*
D12*
X128778000Y-133223000D03*
D13*
X128778000Y-130683000D03*
D12*
X128778000Y-112268000D03*
D13*
X128778000Y-109728000D03*
X128778000Y-107188000D03*
X128778000Y-104648000D03*
X128778000Y-102108000D03*
X128778000Y-99568000D03*
D11*
X144891600Y-112064800D03*
X149971600Y-112064800D03*
X160151600Y-112064800D03*
X162691600Y-112064800D03*
D14*
X161798000Y-101473000D03*
X156718000Y-101473000D03*
X151638000Y-101498400D03*
X146558000Y-101498400D03*
X138049000Y-101473000D03*
X132969000Y-101473000D03*
D15*
X134533600Y-112877600D03*
X136433600Y-112877600D03*
D16*
X138634400Y-110765200D03*
X132434400Y-110765200D03*
X138634400Y-107065200D03*
X132434400Y-107065200D03*
D12*
X128676400Y-121767600D03*
D13*
X128676400Y-124307600D03*
X128676400Y-126847600D03*
D17*
X157988000Y-131475000D03*
X163322000Y-124460000D03*
X153162000Y-123952000D03*
X145034000Y-123317000D03*
X146939000Y-124079000D03*
X155702000Y-124714000D03*
X158496000Y-120015000D03*
X151257000Y-125349000D03*
X155092400Y-111810800D03*
X157022800Y-111810800D03*
X149098000Y-123444000D03*
D18*
X157988000Y-131475000D02*
X157988000Y-131445000D01*
X138634400Y-110765200D02*
X138053200Y-110765200D01*
X138053200Y-110765200D02*
X137871200Y-110947200D01*
X137871200Y-110947200D02*
X137871200Y-113690400D01*
X137871200Y-113690400D02*
X146913600Y-122732800D01*
X146913600Y-122732800D02*
X149453600Y-122732800D01*
X149453600Y-122732800D02*
X150672800Y-123952000D01*
X150672800Y-123952000D02*
X153162000Y-123952000D01*
X128778000Y-104648000D02*
X128778000Y-104952800D01*
X128778000Y-104952800D02*
X130442399Y-106617199D01*
X130442399Y-106617199D02*
X130442399Y-108090399D01*
X130442399Y-108090399D02*
X132434400Y-110082400D01*
X132434400Y-110082400D02*
X132434400Y-110765200D01*
X143129000Y-121412000D02*
X145034000Y-123317000D01*
X128651000Y-109728000D02*
X129743200Y-109728000D01*
X138303000Y-116586000D02*
X143129000Y-121412000D01*
X132486400Y-116586000D02*
X138303000Y-116586000D01*
X130403600Y-114503200D02*
X132486400Y-116586000D01*
X130403600Y-110388400D02*
X130403600Y-114503200D01*
X129743200Y-109728000D02*
X130403600Y-110388400D01*
X143383000Y-120777000D02*
X146431000Y-123825000D01*
X146685000Y-124079000D02*
X146939000Y-124079000D01*
X146431000Y-123825000D02*
X146685000Y-124079000D01*
X128651000Y-107188000D02*
X128778000Y-107188000D01*
X128778000Y-107188000D02*
X130860800Y-109270800D01*
X130860800Y-109270800D02*
X130860800Y-114300000D01*
X130860800Y-114300000D02*
X132638800Y-116078000D01*
X132638800Y-116078000D02*
X138684000Y-116078000D01*
X138684000Y-116078000D02*
X143383000Y-120777000D01*
X143256000Y-122428000D02*
X145542000Y-124714000D01*
X130378200Y-115189000D02*
X132283200Y-117094000D01*
X132283200Y-117094000D02*
X137922000Y-117094000D01*
X137922000Y-117094000D02*
X143256000Y-122428000D01*
X128778000Y-115189000D02*
X130378200Y-115189000D01*
X145542000Y-124714000D02*
X155702000Y-124714000D01*
X158496000Y-126619000D02*
X158496000Y-120015000D01*
X128778000Y-130683000D02*
X140843000Y-130683000D01*
X155956000Y-129159000D02*
X158496000Y-126619000D01*
X142367000Y-129159000D02*
X155956000Y-129159000D01*
X140843000Y-130683000D02*
X142367000Y-129159000D01*
X128778000Y-130683000D02*
X129159000Y-130683000D01*
X151257000Y-125349000D02*
X145415000Y-125349000D01*
X130048000Y-122174000D02*
X130048000Y-119888000D01*
X128778000Y-123444000D02*
X130048000Y-122174000D01*
X137668000Y-117602000D02*
X145415000Y-125349000D01*
X132334000Y-117602000D02*
X137668000Y-117602000D01*
X130048000Y-119888000D02*
X132334000Y-117602000D01*
X128778000Y-124206000D02*
X128778000Y-123444000D01*
X151231600Y-107950000D02*
X147442400Y-107950000D01*
X155092400Y-111810800D02*
X151231600Y-107950000D01*
X159207200Y-111810800D02*
X159461200Y-112064800D01*
X157022800Y-111810800D02*
X159207200Y-111810800D01*
X159461200Y-112064800D02*
X160151600Y-112064800D01*
X136433600Y-112877600D02*
X136550400Y-112877600D01*
X136550400Y-112877600D02*
X137312400Y-112115600D01*
X138634400Y-107065200D02*
X138634400Y-107847200D01*
X146862800Y-123444000D02*
X149098000Y-123444000D01*
X137312400Y-113893600D02*
X146862800Y-123444000D01*
X137312400Y-109169200D02*
X137312400Y-112115600D01*
X137312400Y-112115600D02*
X137312400Y-113893600D01*
X138634400Y-107847200D02*
X137312400Y-109169200D01*
D19*
G36*
X163628000Y-99729356D02*
X163231300Y-99331963D01*
X162302857Y-98946439D01*
X161297554Y-98945562D01*
X160368439Y-99329464D01*
X159656963Y-100039700D01*
X159271439Y-100968143D01*
X159270562Y-101973446D01*
X159654464Y-102902561D01*
X160364700Y-103614037D01*
X161293143Y-103999561D01*
X162298446Y-104000438D01*
X163227561Y-103616536D01*
X163628000Y-103216795D01*
X163628000Y-105747572D01*
X163179686Y-105561416D01*
X162229283Y-105560586D01*
X161350908Y-105923524D01*
X160678286Y-106594973D01*
X160313816Y-107472714D01*
X160312986Y-108423117D01*
X160675924Y-109301492D01*
X161347373Y-109974114D01*
X162225114Y-110338584D01*
X163175517Y-110339414D01*
X163628000Y-110152451D01*
X163628000Y-110990356D01*
X163607218Y-110969574D01*
X163492207Y-111084585D01*
X163422743Y-110842403D01*
X162899298Y-110655656D01*
X162344232Y-110683438D01*
X161960457Y-110842403D01*
X161890992Y-111084587D01*
X162691600Y-111885195D01*
X162705743Y-111871053D01*
X162885348Y-112050658D01*
X162871205Y-112064800D01*
X162885348Y-112078943D01*
X162705743Y-112258548D01*
X162691600Y-112244405D01*
X161890992Y-113045013D01*
X161960457Y-113287197D01*
X162483902Y-113473944D01*
X163038968Y-113446162D01*
X163422743Y-113287197D01*
X163492207Y-113045015D01*
X163607218Y-113160026D01*
X163628000Y-113139244D01*
X163628000Y-133910000D01*
X130275440Y-133910000D01*
X130275440Y-132436661D01*
X160622758Y-132436661D01*
X160834990Y-132950303D01*
X161227630Y-133343629D01*
X161740900Y-133556757D01*
X162296661Y-133557242D01*
X162810303Y-133345010D01*
X163203629Y-132952370D01*
X163416757Y-132439100D01*
X163417242Y-131883339D01*
X163205010Y-131369697D01*
X162812370Y-130976371D01*
X162299100Y-130763243D01*
X161743339Y-130762758D01*
X161229697Y-130974990D01*
X160836371Y-131367630D01*
X160623243Y-131880900D01*
X160622758Y-132436661D01*
X130275440Y-132436661D01*
X130275440Y-132373000D01*
X130231162Y-132137683D01*
X130092090Y-131921559D01*
X129879890Y-131776569D01*
X129812459Y-131762914D01*
X129857147Y-131733054D01*
X130050954Y-131443000D01*
X140843000Y-131443000D01*
X141133839Y-131385148D01*
X141380401Y-131220401D01*
X142681802Y-129919000D01*
X155956000Y-129919000D01*
X156246839Y-129861148D01*
X156493401Y-129696401D01*
X159033401Y-127156401D01*
X159198148Y-126909840D01*
X159235790Y-126720600D01*
X159256000Y-126619000D01*
X159256000Y-120577463D01*
X159288192Y-120545327D01*
X159430838Y-120201799D01*
X159431162Y-119829833D01*
X159289117Y-119486057D01*
X159026327Y-119222808D01*
X158682799Y-119080162D01*
X158310833Y-119079838D01*
X157967057Y-119221883D01*
X157703808Y-119484673D01*
X157561162Y-119828201D01*
X157560838Y-120200167D01*
X157702883Y-120543943D01*
X157736000Y-120577118D01*
X157736000Y-126304198D01*
X155641198Y-128399000D01*
X142367000Y-128399000D01*
X142124414Y-128447254D01*
X142076160Y-128456852D01*
X141829599Y-128621599D01*
X140528198Y-129923000D01*
X130050954Y-129923000D01*
X129857147Y-129632946D01*
X129375378Y-129311039D01*
X128807093Y-129198000D01*
X128748907Y-129198000D01*
X128180622Y-129311039D01*
X127964000Y-129455781D01*
X127964000Y-128122130D01*
X128319508Y-128289086D01*
X128549400Y-128168419D01*
X128549400Y-126974600D01*
X128803400Y-126974600D01*
X128803400Y-128168419D01*
X129033292Y-128289086D01*
X129557758Y-128042783D01*
X129948045Y-127614524D01*
X130023181Y-127433117D01*
X130230586Y-127433117D01*
X130593524Y-128311492D01*
X131264973Y-128984114D01*
X132142714Y-129348584D01*
X133093117Y-129349414D01*
X133971492Y-128986476D01*
X134644114Y-128315027D01*
X135008584Y-127437286D01*
X135009414Y-126486883D01*
X134646476Y-125608508D01*
X133975027Y-124935886D01*
X133097286Y-124571416D01*
X132146883Y-124570586D01*
X131268508Y-124933524D01*
X130595886Y-125604973D01*
X130231416Y-126482714D01*
X130230586Y-127433117D01*
X130023181Y-127433117D01*
X130117876Y-127204490D01*
X129996555Y-126974600D01*
X128803400Y-126974600D01*
X128549400Y-126974600D01*
X128529400Y-126974600D01*
X128529400Y-126720600D01*
X128549400Y-126720600D01*
X128549400Y-126700600D01*
X128803400Y-126700600D01*
X128803400Y-126720600D01*
X129996555Y-126720600D01*
X130117876Y-126490710D01*
X129948045Y-126080676D01*
X129557758Y-125652417D01*
X129414847Y-125585302D01*
X129755547Y-125357654D01*
X130077454Y-124875885D01*
X130190493Y-124307600D01*
X130077454Y-123739315D01*
X129869185Y-123427617D01*
X130415693Y-122881109D01*
X130593524Y-123311492D01*
X131264973Y-123984114D01*
X132142714Y-124348584D01*
X133093117Y-124349414D01*
X133971492Y-123986476D01*
X134644114Y-123315027D01*
X135008584Y-122437286D01*
X135009414Y-121486883D01*
X134646476Y-120608508D01*
X133975027Y-119935886D01*
X133097286Y-119571416D01*
X132146883Y-119570586D01*
X131268508Y-119933524D01*
X130808000Y-120393229D01*
X130808000Y-120202802D01*
X132648802Y-118362000D01*
X137353198Y-118362000D01*
X144877599Y-125886401D01*
X145124160Y-126051148D01*
X145172414Y-126060746D01*
X145415000Y-126109000D01*
X150694537Y-126109000D01*
X150726673Y-126141192D01*
X151070201Y-126283838D01*
X151442167Y-126284162D01*
X151785943Y-126142117D01*
X152049192Y-125879327D01*
X152191838Y-125535799D01*
X152191892Y-125474000D01*
X155139537Y-125474000D01*
X155171673Y-125506192D01*
X155515201Y-125648838D01*
X155887167Y-125649162D01*
X156230943Y-125507117D01*
X156494192Y-125244327D01*
X156636838Y-124900799D01*
X156637162Y-124528833D01*
X156495117Y-124185057D01*
X156232327Y-123921808D01*
X155888799Y-123779162D01*
X155516833Y-123778838D01*
X155173057Y-123920883D01*
X155139882Y-123954000D01*
X154096999Y-123954000D01*
X154097162Y-123766833D01*
X153955117Y-123423057D01*
X153692327Y-123159808D01*
X153348799Y-123017162D01*
X152976833Y-123016838D01*
X152633057Y-123158883D01*
X152599882Y-123192000D01*
X150987602Y-123192000D01*
X149991001Y-122195399D01*
X149744439Y-122030652D01*
X149453600Y-121972800D01*
X147228402Y-121972800D01*
X142995815Y-117740213D01*
X161219392Y-117740213D01*
X161288857Y-117982397D01*
X161812302Y-118169144D01*
X162367368Y-118141362D01*
X162751143Y-117982397D01*
X162820608Y-117740213D01*
X162020000Y-116939605D01*
X161219392Y-117740213D01*
X142995815Y-117740213D01*
X141807904Y-116552302D01*
X160610856Y-116552302D01*
X160638638Y-117107368D01*
X160797603Y-117491143D01*
X161039787Y-117560608D01*
X161840395Y-116760000D01*
X162199605Y-116760000D01*
X163000213Y-117560608D01*
X163242397Y-117491143D01*
X163429144Y-116967698D01*
X163401362Y-116412632D01*
X163242397Y-116028857D01*
X163000213Y-115959392D01*
X162199605Y-116760000D01*
X161840395Y-116760000D01*
X161039787Y-115959392D01*
X160797603Y-116028857D01*
X160610856Y-116552302D01*
X141807904Y-116552302D01*
X141035389Y-115779787D01*
X161219392Y-115779787D01*
X162020000Y-116580395D01*
X162820608Y-115779787D01*
X162751143Y-115537603D01*
X162227698Y-115350856D01*
X161672632Y-115378638D01*
X161288857Y-115537603D01*
X161219392Y-115779787D01*
X141035389Y-115779787D01*
X138631200Y-113375598D01*
X138631200Y-112537917D01*
X142502186Y-112537917D01*
X142865124Y-113416292D01*
X143536573Y-114088914D01*
X144414314Y-114453384D01*
X145364717Y-114454214D01*
X146243092Y-114091276D01*
X146915714Y-113419827D01*
X147280184Y-112542086D01*
X147280187Y-112537917D01*
X147582186Y-112537917D01*
X147945124Y-113416292D01*
X148616573Y-114088914D01*
X149494314Y-114453384D01*
X150444717Y-114454214D01*
X151323092Y-114091276D01*
X151995714Y-113419827D01*
X152360184Y-112542086D01*
X152361014Y-111591683D01*
X151998076Y-110713308D01*
X151326627Y-110040686D01*
X150448886Y-109676216D01*
X149498483Y-109675386D01*
X148620108Y-110038324D01*
X147947486Y-110709773D01*
X147583016Y-111587514D01*
X147582186Y-112537917D01*
X147280187Y-112537917D01*
X147281014Y-111591683D01*
X146918076Y-110713308D01*
X146246627Y-110040686D01*
X145368886Y-109676216D01*
X144418483Y-109675386D01*
X143540108Y-110038324D01*
X142867486Y-110709773D01*
X142503016Y-111587514D01*
X142502186Y-112537917D01*
X138631200Y-112537917D01*
X138631200Y-111962640D01*
X139534400Y-111962640D01*
X139769717Y-111918362D01*
X139985841Y-111779290D01*
X140130831Y-111567090D01*
X140181840Y-111315200D01*
X140181840Y-110215200D01*
X140137562Y-109979883D01*
X139998490Y-109763759D01*
X139786290Y-109618769D01*
X139534400Y-109567760D01*
X138072400Y-109567760D01*
X138072400Y-109484002D01*
X138626189Y-108930213D01*
X144101792Y-108930213D01*
X144171257Y-109172397D01*
X144694702Y-109359144D01*
X145249768Y-109331362D01*
X145633543Y-109172397D01*
X145703008Y-108930213D01*
X144902400Y-108129605D01*
X144101792Y-108930213D01*
X138626189Y-108930213D01*
X139171801Y-108384601D01*
X139253293Y-108262640D01*
X139534400Y-108262640D01*
X139769717Y-108218362D01*
X139985841Y-108079290D01*
X140130831Y-107867090D01*
X140156101Y-107742302D01*
X143493256Y-107742302D01*
X143521038Y-108297368D01*
X143680003Y-108681143D01*
X143922187Y-108750608D01*
X144722795Y-107950000D01*
X145082005Y-107950000D01*
X145882613Y-108750608D01*
X146124797Y-108681143D01*
X146174909Y-108540682D01*
X146257390Y-108740303D01*
X146650030Y-109133629D01*
X147163300Y-109346757D01*
X147719061Y-109347242D01*
X148232703Y-109135010D01*
X148626029Y-108742370D01*
X148639470Y-108710000D01*
X150916798Y-108710000D01*
X154157278Y-111950480D01*
X154157238Y-111995967D01*
X154299283Y-112339743D01*
X154562073Y-112602992D01*
X154905601Y-112745638D01*
X155277567Y-112745962D01*
X155621343Y-112603917D01*
X155884592Y-112341127D01*
X156027238Y-111997599D01*
X156027239Y-111995967D01*
X156087638Y-111995967D01*
X156229683Y-112339743D01*
X156492473Y-112602992D01*
X156836001Y-112745638D01*
X157207967Y-112745962D01*
X157551743Y-112603917D01*
X157584918Y-112570800D01*
X158849119Y-112570800D01*
X158966590Y-112855103D01*
X159359230Y-113248429D01*
X159872500Y-113461557D01*
X160428261Y-113462042D01*
X160941903Y-113249810D01*
X161335229Y-112857170D01*
X161414995Y-112665073D01*
X161469203Y-112795943D01*
X161711387Y-112865408D01*
X162511995Y-112064800D01*
X161711387Y-111264192D01*
X161469203Y-111333657D01*
X161419091Y-111474118D01*
X161336610Y-111274497D01*
X160943970Y-110881171D01*
X160430700Y-110668043D01*
X159874939Y-110667558D01*
X159361297Y-110879790D01*
X159189988Y-111050800D01*
X157585263Y-111050800D01*
X157553127Y-111018608D01*
X157209599Y-110875962D01*
X156837633Y-110875638D01*
X156493857Y-111017683D01*
X156230608Y-111280473D01*
X156087962Y-111624001D01*
X156087638Y-111995967D01*
X156027239Y-111995967D01*
X156027562Y-111625633D01*
X155885517Y-111281857D01*
X155622727Y-111018608D01*
X155279199Y-110875962D01*
X155232323Y-110875921D01*
X152779519Y-108423117D01*
X155232986Y-108423117D01*
X155595924Y-109301492D01*
X156267373Y-109974114D01*
X157145114Y-110338584D01*
X158095517Y-110339414D01*
X158973892Y-109976476D01*
X159646514Y-109305027D01*
X160010984Y-108427286D01*
X160011814Y-107476883D01*
X159648876Y-106598508D01*
X158977427Y-105925886D01*
X158099686Y-105561416D01*
X157149283Y-105560586D01*
X156270908Y-105923524D01*
X155598286Y-106594973D01*
X155233816Y-107472714D01*
X155232986Y-108423117D01*
X152779519Y-108423117D01*
X151769001Y-107412599D01*
X151522439Y-107247852D01*
X151231600Y-107190000D01*
X148639931Y-107190000D01*
X148627410Y-107159697D01*
X148234770Y-106766371D01*
X147721500Y-106553243D01*
X147165739Y-106552758D01*
X146652097Y-106764990D01*
X146258771Y-107157630D01*
X146179005Y-107349727D01*
X146124797Y-107218857D01*
X145882613Y-107149392D01*
X145082005Y-107950000D01*
X144722795Y-107950000D01*
X143922187Y-107149392D01*
X143680003Y-107218857D01*
X143493256Y-107742302D01*
X140156101Y-107742302D01*
X140181840Y-107615200D01*
X140181840Y-106969787D01*
X144101792Y-106969787D01*
X144902400Y-107770395D01*
X145703008Y-106969787D01*
X145633543Y-106727603D01*
X145110098Y-106540856D01*
X144555032Y-106568638D01*
X144171257Y-106727603D01*
X144101792Y-106969787D01*
X140181840Y-106969787D01*
X140181840Y-106515200D01*
X140137562Y-106279883D01*
X139998490Y-106063759D01*
X139786290Y-105918769D01*
X139534400Y-105867760D01*
X137734400Y-105867760D01*
X137499083Y-105912038D01*
X137282959Y-106051110D01*
X137137969Y-106263310D01*
X137086960Y-106515200D01*
X137086960Y-107615200D01*
X137131238Y-107850517D01*
X137270310Y-108066641D01*
X137311805Y-108094993D01*
X136774999Y-108631799D01*
X136610252Y-108878361D01*
X136552400Y-109169200D01*
X136552400Y-111580160D01*
X136083600Y-111580160D01*
X135848283Y-111624438D01*
X135632159Y-111763510D01*
X135487169Y-111975710D01*
X135480409Y-112009090D01*
X135421927Y-111867901D01*
X135243298Y-111689273D01*
X135009909Y-111592600D01*
X134819350Y-111592600D01*
X134660600Y-111751350D01*
X134660600Y-112750600D01*
X134680600Y-112750600D01*
X134680600Y-113004600D01*
X134660600Y-113004600D01*
X134660600Y-114003850D01*
X134819350Y-114162600D01*
X135009909Y-114162600D01*
X135243298Y-114065927D01*
X135421927Y-113887299D01*
X135478254Y-113751313D01*
X135480438Y-113762917D01*
X135619510Y-113979041D01*
X135831710Y-114124031D01*
X136083600Y-114175040D01*
X136608382Y-114175040D01*
X136610252Y-114184439D01*
X136774999Y-114431001D01*
X137661998Y-115318000D01*
X132953602Y-115318000D01*
X131620800Y-113985198D01*
X131620800Y-113163350D01*
X133548600Y-113163350D01*
X133548600Y-113653910D01*
X133645273Y-113887299D01*
X133823902Y-114065927D01*
X134057291Y-114162600D01*
X134247850Y-114162600D01*
X134406600Y-114003850D01*
X134406600Y-113004600D01*
X133707350Y-113004600D01*
X133548600Y-113163350D01*
X131620800Y-113163350D01*
X131620800Y-111962640D01*
X133334400Y-111962640D01*
X133569717Y-111918362D01*
X133644233Y-111870412D01*
X133548600Y-112101290D01*
X133548600Y-112591850D01*
X133707350Y-112750600D01*
X134406600Y-112750600D01*
X134406600Y-111751350D01*
X134247850Y-111592600D01*
X134057291Y-111592600D01*
X133856602Y-111675728D01*
X133930831Y-111567090D01*
X133981840Y-111315200D01*
X133981840Y-110215200D01*
X133937562Y-109979883D01*
X133798490Y-109763759D01*
X133586290Y-109618769D01*
X133334400Y-109567760D01*
X132987009Y-109567760D01*
X132971801Y-109544999D01*
X131689442Y-108262640D01*
X133334400Y-108262640D01*
X133569717Y-108218362D01*
X133785841Y-108079290D01*
X133930831Y-107867090D01*
X133981840Y-107615200D01*
X133981840Y-106515200D01*
X133937562Y-106279883D01*
X133798490Y-106063759D01*
X133586290Y-105918769D01*
X133334400Y-105867760D01*
X131534400Y-105867760D01*
X131299083Y-105912038D01*
X131082959Y-106051110D01*
X131021112Y-106141626D01*
X130979800Y-106079798D01*
X130153913Y-105253911D01*
X130179054Y-105216285D01*
X130292093Y-104648000D01*
X130179054Y-104079715D01*
X129857147Y-103597946D01*
X129527974Y-103378000D01*
X129857147Y-103158054D01*
X130179054Y-102676285D01*
X130292093Y-102108000D01*
X130265329Y-101973446D01*
X130441562Y-101973446D01*
X130825464Y-102902561D01*
X131535700Y-103614037D01*
X132464143Y-103999561D01*
X133469446Y-104000438D01*
X134398561Y-103616536D01*
X135110037Y-102906300D01*
X135495561Y-101977857D01*
X135495564Y-101973446D01*
X135521562Y-101973446D01*
X135905464Y-102902561D01*
X136615700Y-103614037D01*
X137544143Y-103999561D01*
X138549446Y-104000438D01*
X139478561Y-103616536D01*
X140190037Y-102906300D01*
X140566845Y-101998846D01*
X144030562Y-101998846D01*
X144414464Y-102927961D01*
X145124700Y-103639437D01*
X146053143Y-104024961D01*
X147058446Y-104025838D01*
X147987561Y-103641936D01*
X148699037Y-102931700D01*
X149084561Y-102003257D01*
X149084564Y-101998846D01*
X149110562Y-101998846D01*
X149494464Y-102927961D01*
X150204700Y-103639437D01*
X151133143Y-104024961D01*
X152138446Y-104025838D01*
X153067561Y-103641936D01*
X153779037Y-102931700D01*
X154164561Y-102003257D01*
X154164587Y-101973446D01*
X154190562Y-101973446D01*
X154574464Y-102902561D01*
X155284700Y-103614037D01*
X156213143Y-103999561D01*
X157218446Y-104000438D01*
X158147561Y-103616536D01*
X158859037Y-102906300D01*
X159244561Y-101977857D01*
X159245438Y-100972554D01*
X158861536Y-100043439D01*
X158151300Y-99331963D01*
X157222857Y-98946439D01*
X156217554Y-98945562D01*
X155288439Y-99329464D01*
X154576963Y-100039700D01*
X154191439Y-100968143D01*
X154190562Y-101973446D01*
X154164587Y-101973446D01*
X154165438Y-100997954D01*
X153781536Y-100068839D01*
X153071300Y-99357363D01*
X152142857Y-98971839D01*
X151137554Y-98970962D01*
X150208439Y-99354864D01*
X149496963Y-100065100D01*
X149111439Y-100993543D01*
X149110562Y-101998846D01*
X149084564Y-101998846D01*
X149085438Y-100997954D01*
X148701536Y-100068839D01*
X147991300Y-99357363D01*
X147062857Y-98971839D01*
X146057554Y-98970962D01*
X145128439Y-99354864D01*
X144416963Y-100065100D01*
X144031439Y-100993543D01*
X144030562Y-101998846D01*
X140566845Y-101998846D01*
X140575561Y-101977857D01*
X140576438Y-100972554D01*
X140192536Y-100043439D01*
X139482300Y-99331963D01*
X138553857Y-98946439D01*
X137548554Y-98945562D01*
X136619439Y-99329464D01*
X135907963Y-100039700D01*
X135522439Y-100968143D01*
X135521562Y-101973446D01*
X135495564Y-101973446D01*
X135496438Y-100972554D01*
X135112536Y-100043439D01*
X134402300Y-99331963D01*
X133473857Y-98946439D01*
X132468554Y-98945562D01*
X131539439Y-99329464D01*
X130827963Y-100039700D01*
X130442439Y-100968143D01*
X130441562Y-101973446D01*
X130265329Y-101973446D01*
X130179054Y-101539715D01*
X129857147Y-101057946D01*
X129516447Y-100830298D01*
X129659358Y-100763183D01*
X130049645Y-100334924D01*
X130219476Y-99924890D01*
X130098155Y-99695000D01*
X128905000Y-99695000D01*
X128905000Y-99715000D01*
X128651000Y-99715000D01*
X128651000Y-99695000D01*
X128631000Y-99695000D01*
X128631000Y-99441000D01*
X128651000Y-99441000D01*
X128651000Y-99421000D01*
X128905000Y-99421000D01*
X128905000Y-99441000D01*
X130098155Y-99441000D01*
X130219476Y-99211110D01*
X130082749Y-98881000D01*
X163628000Y-98881000D01*
X163628000Y-99729356D01*
X163628000Y-99729356D01*
G37*
X163628000Y-99729356D02*
X163231300Y-99331963D01*
X162302857Y-98946439D01*
X161297554Y-98945562D01*
X160368439Y-99329464D01*
X159656963Y-100039700D01*
X159271439Y-100968143D01*
X159270562Y-101973446D01*
X159654464Y-102902561D01*
X160364700Y-103614037D01*
X161293143Y-103999561D01*
X162298446Y-104000438D01*
X163227561Y-103616536D01*
X163628000Y-103216795D01*
X163628000Y-105747572D01*
X163179686Y-105561416D01*
X162229283Y-105560586D01*
X161350908Y-105923524D01*
X160678286Y-106594973D01*
X160313816Y-107472714D01*
X160312986Y-108423117D01*
X160675924Y-109301492D01*
X161347373Y-109974114D01*
X162225114Y-110338584D01*
X163175517Y-110339414D01*
X163628000Y-110152451D01*
X163628000Y-110990356D01*
X163607218Y-110969574D01*
X163492207Y-111084585D01*
X163422743Y-110842403D01*
X162899298Y-110655656D01*
X162344232Y-110683438D01*
X161960457Y-110842403D01*
X161890992Y-111084587D01*
X162691600Y-111885195D01*
X162705743Y-111871053D01*
X162885348Y-112050658D01*
X162871205Y-112064800D01*
X162885348Y-112078943D01*
X162705743Y-112258548D01*
X162691600Y-112244405D01*
X161890992Y-113045013D01*
X161960457Y-113287197D01*
X162483902Y-113473944D01*
X163038968Y-113446162D01*
X163422743Y-113287197D01*
X163492207Y-113045015D01*
X163607218Y-113160026D01*
X163628000Y-113139244D01*
X163628000Y-133910000D01*
X130275440Y-133910000D01*
X130275440Y-132436661D01*
X160622758Y-132436661D01*
X160834990Y-132950303D01*
X161227630Y-133343629D01*
X161740900Y-133556757D01*
X162296661Y-133557242D01*
X162810303Y-133345010D01*
X163203629Y-132952370D01*
X163416757Y-132439100D01*
X163417242Y-131883339D01*
X163205010Y-131369697D01*
X162812370Y-130976371D01*
X162299100Y-130763243D01*
X161743339Y-130762758D01*
X161229697Y-130974990D01*
X160836371Y-131367630D01*
X160623243Y-131880900D01*
X160622758Y-132436661D01*
X130275440Y-132436661D01*
X130275440Y-132373000D01*
X130231162Y-132137683D01*
X130092090Y-131921559D01*
X129879890Y-131776569D01*
X129812459Y-131762914D01*
X129857147Y-131733054D01*
X130050954Y-131443000D01*
X140843000Y-131443000D01*
X141133839Y-131385148D01*
X141380401Y-131220401D01*
X142681802Y-129919000D01*
X155956000Y-129919000D01*
X156246839Y-129861148D01*
X156493401Y-129696401D01*
X159033401Y-127156401D01*
X159198148Y-126909840D01*
X159235790Y-126720600D01*
X159256000Y-126619000D01*
X159256000Y-120577463D01*
X159288192Y-120545327D01*
X159430838Y-120201799D01*
X159431162Y-119829833D01*
X159289117Y-119486057D01*
X159026327Y-119222808D01*
X158682799Y-119080162D01*
X158310833Y-119079838D01*
X157967057Y-119221883D01*
X157703808Y-119484673D01*
X157561162Y-119828201D01*
X157560838Y-120200167D01*
X157702883Y-120543943D01*
X157736000Y-120577118D01*
X157736000Y-126304198D01*
X155641198Y-128399000D01*
X142367000Y-128399000D01*
X142124414Y-128447254D01*
X142076160Y-128456852D01*
X141829599Y-128621599D01*
X140528198Y-129923000D01*
X130050954Y-129923000D01*
X129857147Y-129632946D01*
X129375378Y-129311039D01*
X128807093Y-129198000D01*
X128748907Y-129198000D01*
X128180622Y-129311039D01*
X127964000Y-129455781D01*
X127964000Y-128122130D01*
X128319508Y-128289086D01*
X128549400Y-128168419D01*
X128549400Y-126974600D01*
X128803400Y-126974600D01*
X128803400Y-128168419D01*
X129033292Y-128289086D01*
X129557758Y-128042783D01*
X129948045Y-127614524D01*
X130023181Y-127433117D01*
X130230586Y-127433117D01*
X130593524Y-128311492D01*
X131264973Y-128984114D01*
X132142714Y-129348584D01*
X133093117Y-129349414D01*
X133971492Y-128986476D01*
X134644114Y-128315027D01*
X135008584Y-127437286D01*
X135009414Y-126486883D01*
X134646476Y-125608508D01*
X133975027Y-124935886D01*
X133097286Y-124571416D01*
X132146883Y-124570586D01*
X131268508Y-124933524D01*
X130595886Y-125604973D01*
X130231416Y-126482714D01*
X130230586Y-127433117D01*
X130023181Y-127433117D01*
X130117876Y-127204490D01*
X129996555Y-126974600D01*
X128803400Y-126974600D01*
X128549400Y-126974600D01*
X128529400Y-126974600D01*
X128529400Y-126720600D01*
X128549400Y-126720600D01*
X128549400Y-126700600D01*
X128803400Y-126700600D01*
X128803400Y-126720600D01*
X129996555Y-126720600D01*
X130117876Y-126490710D01*
X129948045Y-126080676D01*
X129557758Y-125652417D01*
X129414847Y-125585302D01*
X129755547Y-125357654D01*
X130077454Y-124875885D01*
X130190493Y-124307600D01*
X130077454Y-123739315D01*
X129869185Y-123427617D01*
X130415693Y-122881109D01*
X130593524Y-123311492D01*
X131264973Y-123984114D01*
X132142714Y-124348584D01*
X133093117Y-124349414D01*
X133971492Y-123986476D01*
X134644114Y-123315027D01*
X135008584Y-122437286D01*
X135009414Y-121486883D01*
X134646476Y-120608508D01*
X133975027Y-119935886D01*
X133097286Y-119571416D01*
X132146883Y-119570586D01*
X131268508Y-119933524D01*
X130808000Y-120393229D01*
X130808000Y-120202802D01*
X132648802Y-118362000D01*
X137353198Y-118362000D01*
X144877599Y-125886401D01*
X145124160Y-126051148D01*
X145172414Y-126060746D01*
X145415000Y-126109000D01*
X150694537Y-126109000D01*
X150726673Y-126141192D01*
X151070201Y-126283838D01*
X151442167Y-126284162D01*
X151785943Y-126142117D01*
X152049192Y-125879327D01*
X152191838Y-125535799D01*
X152191892Y-125474000D01*
X155139537Y-125474000D01*
X155171673Y-125506192D01*
X155515201Y-125648838D01*
X155887167Y-125649162D01*
X156230943Y-125507117D01*
X156494192Y-125244327D01*
X156636838Y-124900799D01*
X156637162Y-124528833D01*
X156495117Y-124185057D01*
X156232327Y-123921808D01*
X155888799Y-123779162D01*
X155516833Y-123778838D01*
X155173057Y-123920883D01*
X155139882Y-123954000D01*
X154096999Y-123954000D01*
X154097162Y-123766833D01*
X153955117Y-123423057D01*
X153692327Y-123159808D01*
X153348799Y-123017162D01*
X152976833Y-123016838D01*
X152633057Y-123158883D01*
X152599882Y-123192000D01*
X150987602Y-123192000D01*
X149991001Y-122195399D01*
X149744439Y-122030652D01*
X149453600Y-121972800D01*
X147228402Y-121972800D01*
X142995815Y-117740213D01*
X161219392Y-117740213D01*
X161288857Y-117982397D01*
X161812302Y-118169144D01*
X162367368Y-118141362D01*
X162751143Y-117982397D01*
X162820608Y-117740213D01*
X162020000Y-116939605D01*
X161219392Y-117740213D01*
X142995815Y-117740213D01*
X141807904Y-116552302D01*
X160610856Y-116552302D01*
X160638638Y-117107368D01*
X160797603Y-117491143D01*
X161039787Y-117560608D01*
X161840395Y-116760000D01*
X162199605Y-116760000D01*
X163000213Y-117560608D01*
X163242397Y-117491143D01*
X163429144Y-116967698D01*
X163401362Y-116412632D01*
X163242397Y-116028857D01*
X163000213Y-115959392D01*
X162199605Y-116760000D01*
X161840395Y-116760000D01*
X161039787Y-115959392D01*
X160797603Y-116028857D01*
X160610856Y-116552302D01*
X141807904Y-116552302D01*
X141035389Y-115779787D01*
X161219392Y-115779787D01*
X162020000Y-116580395D01*
X162820608Y-115779787D01*
X162751143Y-115537603D01*
X162227698Y-115350856D01*
X161672632Y-115378638D01*
X161288857Y-115537603D01*
X161219392Y-115779787D01*
X141035389Y-115779787D01*
X138631200Y-113375598D01*
X138631200Y-112537917D01*
X142502186Y-112537917D01*
X142865124Y-113416292D01*
X143536573Y-114088914D01*
X144414314Y-114453384D01*
X145364717Y-114454214D01*
X146243092Y-114091276D01*
X146915714Y-113419827D01*
X147280184Y-112542086D01*
X147280187Y-112537917D01*
X147582186Y-112537917D01*
X147945124Y-113416292D01*
X148616573Y-114088914D01*
X149494314Y-114453384D01*
X150444717Y-114454214D01*
X151323092Y-114091276D01*
X151995714Y-113419827D01*
X152360184Y-112542086D01*
X152361014Y-111591683D01*
X151998076Y-110713308D01*
X151326627Y-110040686D01*
X150448886Y-109676216D01*
X149498483Y-109675386D01*
X148620108Y-110038324D01*
X147947486Y-110709773D01*
X147583016Y-111587514D01*
X147582186Y-112537917D01*
X147280187Y-112537917D01*
X147281014Y-111591683D01*
X146918076Y-110713308D01*
X146246627Y-110040686D01*
X145368886Y-109676216D01*
X144418483Y-109675386D01*
X143540108Y-110038324D01*
X142867486Y-110709773D01*
X142503016Y-111587514D01*
X142502186Y-112537917D01*
X138631200Y-112537917D01*
X138631200Y-111962640D01*
X139534400Y-111962640D01*
X139769717Y-111918362D01*
X139985841Y-111779290D01*
X140130831Y-111567090D01*
X140181840Y-111315200D01*
X140181840Y-110215200D01*
X140137562Y-109979883D01*
X139998490Y-109763759D01*
X139786290Y-109618769D01*
X139534400Y-109567760D01*
X138072400Y-109567760D01*
X138072400Y-109484002D01*
X138626189Y-108930213D01*
X144101792Y-108930213D01*
X144171257Y-109172397D01*
X144694702Y-109359144D01*
X145249768Y-109331362D01*
X145633543Y-109172397D01*
X145703008Y-108930213D01*
X144902400Y-108129605D01*
X144101792Y-108930213D01*
X138626189Y-108930213D01*
X139171801Y-108384601D01*
X139253293Y-108262640D01*
X139534400Y-108262640D01*
X139769717Y-108218362D01*
X139985841Y-108079290D01*
X140130831Y-107867090D01*
X140156101Y-107742302D01*
X143493256Y-107742302D01*
X143521038Y-108297368D01*
X143680003Y-108681143D01*
X143922187Y-108750608D01*
X144722795Y-107950000D01*
X145082005Y-107950000D01*
X145882613Y-108750608D01*
X146124797Y-108681143D01*
X146174909Y-108540682D01*
X146257390Y-108740303D01*
X146650030Y-109133629D01*
X147163300Y-109346757D01*
X147719061Y-109347242D01*
X148232703Y-109135010D01*
X148626029Y-108742370D01*
X148639470Y-108710000D01*
X150916798Y-108710000D01*
X154157278Y-111950480D01*
X154157238Y-111995967D01*
X154299283Y-112339743D01*
X154562073Y-112602992D01*
X154905601Y-112745638D01*
X155277567Y-112745962D01*
X155621343Y-112603917D01*
X155884592Y-112341127D01*
X156027238Y-111997599D01*
X156027239Y-111995967D01*
X156087638Y-111995967D01*
X156229683Y-112339743D01*
X156492473Y-112602992D01*
X156836001Y-112745638D01*
X157207967Y-112745962D01*
X157551743Y-112603917D01*
X157584918Y-112570800D01*
X158849119Y-112570800D01*
X158966590Y-112855103D01*
X159359230Y-113248429D01*
X159872500Y-113461557D01*
X160428261Y-113462042D01*
X160941903Y-113249810D01*
X161335229Y-112857170D01*
X161414995Y-112665073D01*
X161469203Y-112795943D01*
X161711387Y-112865408D01*
X162511995Y-112064800D01*
X161711387Y-111264192D01*
X161469203Y-111333657D01*
X161419091Y-111474118D01*
X161336610Y-111274497D01*
X160943970Y-110881171D01*
X160430700Y-110668043D01*
X159874939Y-110667558D01*
X159361297Y-110879790D01*
X159189988Y-111050800D01*
X157585263Y-111050800D01*
X157553127Y-111018608D01*
X157209599Y-110875962D01*
X156837633Y-110875638D01*
X156493857Y-111017683D01*
X156230608Y-111280473D01*
X156087962Y-111624001D01*
X156087638Y-111995967D01*
X156027239Y-111995967D01*
X156027562Y-111625633D01*
X155885517Y-111281857D01*
X155622727Y-111018608D01*
X155279199Y-110875962D01*
X155232323Y-110875921D01*
X152779519Y-108423117D01*
X155232986Y-108423117D01*
X155595924Y-109301492D01*
X156267373Y-109974114D01*
X157145114Y-110338584D01*
X158095517Y-110339414D01*
X158973892Y-109976476D01*
X159646514Y-109305027D01*
X160010984Y-108427286D01*
X160011814Y-107476883D01*
X159648876Y-106598508D01*
X158977427Y-105925886D01*
X158099686Y-105561416D01*
X157149283Y-105560586D01*
X156270908Y-105923524D01*
X155598286Y-106594973D01*
X155233816Y-107472714D01*
X155232986Y-108423117D01*
X152779519Y-108423117D01*
X151769001Y-107412599D01*
X151522439Y-107247852D01*
X151231600Y-107190000D01*
X148639931Y-107190000D01*
X148627410Y-107159697D01*
X148234770Y-106766371D01*
X147721500Y-106553243D01*
X147165739Y-106552758D01*
X146652097Y-106764990D01*
X146258771Y-107157630D01*
X146179005Y-107349727D01*
X146124797Y-107218857D01*
X145882613Y-107149392D01*
X145082005Y-107950000D01*
X144722795Y-107950000D01*
X143922187Y-107149392D01*
X143680003Y-107218857D01*
X143493256Y-107742302D01*
X140156101Y-107742302D01*
X140181840Y-107615200D01*
X140181840Y-106969787D01*
X144101792Y-106969787D01*
X144902400Y-107770395D01*
X145703008Y-106969787D01*
X145633543Y-106727603D01*
X145110098Y-106540856D01*
X144555032Y-106568638D01*
X144171257Y-106727603D01*
X144101792Y-106969787D01*
X140181840Y-106969787D01*
X140181840Y-106515200D01*
X140137562Y-106279883D01*
X139998490Y-106063759D01*
X139786290Y-105918769D01*
X139534400Y-105867760D01*
X137734400Y-105867760D01*
X137499083Y-105912038D01*
X137282959Y-106051110D01*
X137137969Y-106263310D01*
X137086960Y-106515200D01*
X137086960Y-107615200D01*
X137131238Y-107850517D01*
X137270310Y-108066641D01*
X137311805Y-108094993D01*
X136774999Y-108631799D01*
X136610252Y-108878361D01*
X136552400Y-109169200D01*
X136552400Y-111580160D01*
X136083600Y-111580160D01*
X135848283Y-111624438D01*
X135632159Y-111763510D01*
X135487169Y-111975710D01*
X135480409Y-112009090D01*
X135421927Y-111867901D01*
X135243298Y-111689273D01*
X135009909Y-111592600D01*
X134819350Y-111592600D01*
X134660600Y-111751350D01*
X134660600Y-112750600D01*
X134680600Y-112750600D01*
X134680600Y-113004600D01*
X134660600Y-113004600D01*
X134660600Y-114003850D01*
X134819350Y-114162600D01*
X135009909Y-114162600D01*
X135243298Y-114065927D01*
X135421927Y-113887299D01*
X135478254Y-113751313D01*
X135480438Y-113762917D01*
X135619510Y-113979041D01*
X135831710Y-114124031D01*
X136083600Y-114175040D01*
X136608382Y-114175040D01*
X136610252Y-114184439D01*
X136774999Y-114431001D01*
X137661998Y-115318000D01*
X132953602Y-115318000D01*
X131620800Y-113985198D01*
X131620800Y-113163350D01*
X133548600Y-113163350D01*
X133548600Y-113653910D01*
X133645273Y-113887299D01*
X133823902Y-114065927D01*
X134057291Y-114162600D01*
X134247850Y-114162600D01*
X134406600Y-114003850D01*
X134406600Y-113004600D01*
X133707350Y-113004600D01*
X133548600Y-113163350D01*
X131620800Y-113163350D01*
X131620800Y-111962640D01*
X133334400Y-111962640D01*
X133569717Y-111918362D01*
X133644233Y-111870412D01*
X133548600Y-112101290D01*
X133548600Y-112591850D01*
X133707350Y-112750600D01*
X134406600Y-112750600D01*
X134406600Y-111751350D01*
X134247850Y-111592600D01*
X134057291Y-111592600D01*
X133856602Y-111675728D01*
X133930831Y-111567090D01*
X133981840Y-111315200D01*
X133981840Y-110215200D01*
X133937562Y-109979883D01*
X133798490Y-109763759D01*
X133586290Y-109618769D01*
X133334400Y-109567760D01*
X132987009Y-109567760D01*
X132971801Y-109544999D01*
X131689442Y-108262640D01*
X133334400Y-108262640D01*
X133569717Y-108218362D01*
X133785841Y-108079290D01*
X133930831Y-107867090D01*
X133981840Y-107615200D01*
X133981840Y-106515200D01*
X133937562Y-106279883D01*
X133798490Y-106063759D01*
X133586290Y-105918769D01*
X133334400Y-105867760D01*
X131534400Y-105867760D01*
X131299083Y-105912038D01*
X131082959Y-106051110D01*
X131021112Y-106141626D01*
X130979800Y-106079798D01*
X130153913Y-105253911D01*
X130179054Y-105216285D01*
X130292093Y-104648000D01*
X130179054Y-104079715D01*
X129857147Y-103597946D01*
X129527974Y-103378000D01*
X129857147Y-103158054D01*
X130179054Y-102676285D01*
X130292093Y-102108000D01*
X130265329Y-101973446D01*
X130441562Y-101973446D01*
X130825464Y-102902561D01*
X131535700Y-103614037D01*
X132464143Y-103999561D01*
X133469446Y-104000438D01*
X134398561Y-103616536D01*
X135110037Y-102906300D01*
X135495561Y-101977857D01*
X135495564Y-101973446D01*
X135521562Y-101973446D01*
X135905464Y-102902561D01*
X136615700Y-103614037D01*
X137544143Y-103999561D01*
X138549446Y-104000438D01*
X139478561Y-103616536D01*
X140190037Y-102906300D01*
X140566845Y-101998846D01*
X144030562Y-101998846D01*
X144414464Y-102927961D01*
X145124700Y-103639437D01*
X146053143Y-104024961D01*
X147058446Y-104025838D01*
X147987561Y-103641936D01*
X148699037Y-102931700D01*
X149084561Y-102003257D01*
X149084564Y-101998846D01*
X149110562Y-101998846D01*
X149494464Y-102927961D01*
X150204700Y-103639437D01*
X151133143Y-104024961D01*
X152138446Y-104025838D01*
X153067561Y-103641936D01*
X153779037Y-102931700D01*
X154164561Y-102003257D01*
X154164587Y-101973446D01*
X154190562Y-101973446D01*
X154574464Y-102902561D01*
X155284700Y-103614037D01*
X156213143Y-103999561D01*
X157218446Y-104000438D01*
X158147561Y-103616536D01*
X158859037Y-102906300D01*
X159244561Y-101977857D01*
X159245438Y-100972554D01*
X158861536Y-100043439D01*
X158151300Y-99331963D01*
X157222857Y-98946439D01*
X156217554Y-98945562D01*
X155288439Y-99329464D01*
X154576963Y-100039700D01*
X154191439Y-100968143D01*
X154190562Y-101973446D01*
X154164587Y-101973446D01*
X154165438Y-100997954D01*
X153781536Y-100068839D01*
X153071300Y-99357363D01*
X152142857Y-98971839D01*
X151137554Y-98970962D01*
X150208439Y-99354864D01*
X149496963Y-100065100D01*
X149111439Y-100993543D01*
X149110562Y-101998846D01*
X149084564Y-101998846D01*
X149085438Y-100997954D01*
X148701536Y-100068839D01*
X147991300Y-99357363D01*
X147062857Y-98971839D01*
X146057554Y-98970962D01*
X145128439Y-99354864D01*
X144416963Y-100065100D01*
X144031439Y-100993543D01*
X144030562Y-101998846D01*
X140566845Y-101998846D01*
X140575561Y-101977857D01*
X140576438Y-100972554D01*
X140192536Y-100043439D01*
X139482300Y-99331963D01*
X138553857Y-98946439D01*
X137548554Y-98945562D01*
X136619439Y-99329464D01*
X135907963Y-100039700D01*
X135522439Y-100968143D01*
X135521562Y-101973446D01*
X135495564Y-101973446D01*
X135496438Y-100972554D01*
X135112536Y-100043439D01*
X134402300Y-99331963D01*
X133473857Y-98946439D01*
X132468554Y-98945562D01*
X131539439Y-99329464D01*
X130827963Y-100039700D01*
X130442439Y-100968143D01*
X130441562Y-101973446D01*
X130265329Y-101973446D01*
X130179054Y-101539715D01*
X129857147Y-101057946D01*
X129516447Y-100830298D01*
X129659358Y-100763183D01*
X130049645Y-100334924D01*
X130219476Y-99924890D01*
X130098155Y-99695000D01*
X128905000Y-99695000D01*
X128905000Y-99715000D01*
X128651000Y-99715000D01*
X128651000Y-99695000D01*
X128631000Y-99695000D01*
X128631000Y-99441000D01*
X128651000Y-99441000D01*
X128651000Y-99421000D01*
X128905000Y-99421000D01*
X128905000Y-99441000D01*
X130098155Y-99441000D01*
X130219476Y-99211110D01*
X130082749Y-98881000D01*
X163628000Y-98881000D01*
X163628000Y-99729356D01*
M02*
