G04 #@! TF.FileFunction,Legend,Top*
%FSLAX46Y46*%
G04 Gerber Fmt 4.6, Leading zero omitted, Abs format (unit mm)*
G04 Created by KiCad (PCBNEW 4.0.6) date Thursday, 20. September 2018 19:48:34*
%MOMM*%
%LPD*%
G01*
G04 APERTURE LIST*
%ADD10C,0.100000*%
%ADD11C,0.120000*%
%ADD12C,0.150000*%
G04 APERTURE END LIST*
D10*
D11*
X130168000Y-116459000D02*
X130168000Y-113799000D01*
X130168000Y-113799000D02*
X127388000Y-113799000D01*
X127388000Y-113799000D02*
X127388000Y-116459000D01*
X127388000Y-116459000D02*
X130168000Y-116459000D01*
X130168000Y-117729000D02*
X130168000Y-119119000D01*
X130168000Y-119119000D02*
X128778000Y-119119000D01*
X130168000Y-131953000D02*
X130168000Y-129293000D01*
X130168000Y-129293000D02*
X127388000Y-129293000D01*
X127388000Y-129293000D02*
X127388000Y-131953000D01*
X127388000Y-131953000D02*
X130168000Y-131953000D01*
X130168000Y-133223000D02*
X130168000Y-134613000D01*
X130168000Y-134613000D02*
X128778000Y-134613000D01*
X130168000Y-110998000D02*
X130168000Y-98178000D01*
X130168000Y-98178000D02*
X127388000Y-98178000D01*
X127388000Y-98178000D02*
X127388000Y-110998000D01*
X127388000Y-110998000D02*
X130168000Y-110998000D01*
X130168000Y-112268000D02*
X130168000Y-113658000D01*
X130168000Y-113658000D02*
X128778000Y-113658000D01*
X136083600Y-113757600D02*
X134883600Y-113757600D01*
X134883600Y-111997600D02*
X136083600Y-111997600D01*
X127346400Y-128177600D02*
X130006400Y-128177600D01*
X127346400Y-123037600D02*
X127346400Y-128177600D01*
X130006400Y-123037600D02*
X130006400Y-128177600D01*
X127346400Y-123037600D02*
X130006400Y-123037600D01*
X127346400Y-121767600D02*
X127346400Y-120437600D01*
X127346400Y-120437600D02*
X128676400Y-120437600D01*
D12*
X164363400Y-109728000D02*
X164363400Y-106172000D01*
X164363400Y-106172000D02*
X143281400Y-106172000D01*
X143281400Y-106172000D02*
X143281400Y-109728000D01*
X143281400Y-109728000D02*
X164363400Y-109728000D01*
X143230600Y-110286800D02*
X143230600Y-113842800D01*
X143230600Y-113842800D02*
X164312600Y-113842800D01*
X164312600Y-113842800D02*
X164312600Y-110286800D01*
X164312600Y-110286800D02*
X143230600Y-110286800D01*
D11*
X137234400Y-106615200D02*
X136784400Y-106165200D01*
X133834400Y-106615200D02*
X134284400Y-106165200D01*
X133834400Y-111215200D02*
X134284400Y-111665200D01*
X137234400Y-111215200D02*
X136784400Y-111665200D01*
X132784400Y-109915200D02*
X132784400Y-107915200D01*
X136784400Y-106165200D02*
X134284400Y-106165200D01*
X138284400Y-109915200D02*
X138284400Y-107915200D01*
X136784400Y-111665200D02*
X134284400Y-111665200D01*
D12*
X130320000Y-114360000D02*
X164320000Y-114360000D01*
X164320000Y-114360000D02*
X164320000Y-134560000D01*
X164320000Y-134560000D02*
X130320000Y-134560000D01*
X130320000Y-134560000D02*
X130320000Y-114360000D01*
X139954000Y-98933000D02*
X139954000Y-98173000D01*
X131064000Y-98933000D02*
X131064000Y-98173000D01*
X134874000Y-98933000D02*
X134874000Y-98173000D01*
X136144000Y-98933000D02*
X136144000Y-98173000D01*
X134388903Y-101473000D02*
G75*
G03X134388903Y-101473000I-1419903J0D01*
G01*
X139468903Y-101473000D02*
G75*
G03X139468903Y-101473000I-1419903J0D01*
G01*
X140509000Y-104013000D02*
X130509000Y-104013000D01*
X140509000Y-98933000D02*
X130509000Y-98933000D01*
X140509000Y-105673000D02*
X140509000Y-98173000D01*
X140509000Y-98173000D02*
X130509000Y-98173000D01*
X130509000Y-98173000D02*
X130509000Y-105673000D01*
X130509000Y-105673000D02*
X140509000Y-105673000D01*
X153543000Y-98958400D02*
X153543000Y-98198400D01*
X144653000Y-98958400D02*
X144653000Y-98198400D01*
X148463000Y-98958400D02*
X148463000Y-98198400D01*
X149733000Y-98958400D02*
X149733000Y-98198400D01*
X147977903Y-101498400D02*
G75*
G03X147977903Y-101498400I-1419903J0D01*
G01*
X153057903Y-101498400D02*
G75*
G03X153057903Y-101498400I-1419903J0D01*
G01*
X154098000Y-104038400D02*
X144098000Y-104038400D01*
X154098000Y-98958400D02*
X144098000Y-98958400D01*
X154098000Y-105698400D02*
X154098000Y-98198400D01*
X154098000Y-98198400D02*
X144098000Y-98198400D01*
X144098000Y-98198400D02*
X144098000Y-105698400D01*
X144098000Y-105698400D02*
X154098000Y-105698400D01*
X163703000Y-98933000D02*
X163703000Y-98173000D01*
X154813000Y-98933000D02*
X154813000Y-98173000D01*
X158623000Y-98933000D02*
X158623000Y-98173000D01*
X159893000Y-98933000D02*
X159893000Y-98173000D01*
X158137903Y-101473000D02*
G75*
G03X158137903Y-101473000I-1419903J0D01*
G01*
X163217903Y-101473000D02*
G75*
G03X163217903Y-101473000I-1419903J0D01*
G01*
X164258000Y-104013000D02*
X154258000Y-104013000D01*
X164258000Y-98933000D02*
X154258000Y-98933000D01*
X164258000Y-105673000D02*
X164258000Y-98173000D01*
X164258000Y-98173000D02*
X154258000Y-98173000D01*
X154258000Y-98173000D02*
X154258000Y-105673000D01*
X154258000Y-105673000D02*
X164258000Y-105673000D01*
X130625905Y-116852666D02*
X131197333Y-116852666D01*
X131311619Y-116890762D01*
X131387810Y-116966952D01*
X131425905Y-117081238D01*
X131425905Y-117157428D01*
X130702095Y-116509809D02*
X130664000Y-116471714D01*
X130625905Y-116395523D01*
X130625905Y-116205047D01*
X130664000Y-116128857D01*
X130702095Y-116090761D01*
X130778286Y-116052666D01*
X130854476Y-116052666D01*
X130968762Y-116090761D01*
X131425905Y-116547904D01*
X131425905Y-116052666D01*
X130625905Y-132346666D02*
X131197333Y-132346666D01*
X131311619Y-132384762D01*
X131387810Y-132460952D01*
X131425905Y-132575238D01*
X131425905Y-132651428D01*
X130625905Y-132041904D02*
X130625905Y-131546666D01*
X130930667Y-131813333D01*
X130930667Y-131699047D01*
X130968762Y-131622857D01*
X131006857Y-131584761D01*
X131083048Y-131546666D01*
X131273524Y-131546666D01*
X131349714Y-131584761D01*
X131387810Y-131622857D01*
X131425905Y-131699047D01*
X131425905Y-131927619D01*
X131387810Y-132003809D01*
X131349714Y-132041904D01*
X130924334Y-113226905D02*
X130924334Y-113798333D01*
X130886238Y-113912619D01*
X130810048Y-113988810D01*
X130695762Y-114026905D01*
X130619572Y-114026905D01*
X131724334Y-114026905D02*
X131267191Y-114026905D01*
X131495762Y-114026905D02*
X131495762Y-113226905D01*
X131419572Y-113341190D01*
X131343381Y-113417381D01*
X131267191Y-113455476D01*
X135316934Y-111551981D02*
X134983600Y-111075790D01*
X134745505Y-111551981D02*
X134745505Y-110551981D01*
X135126458Y-110551981D01*
X135221696Y-110599600D01*
X135269315Y-110647219D01*
X135316934Y-110742457D01*
X135316934Y-110885314D01*
X135269315Y-110980552D01*
X135221696Y-111028171D01*
X135126458Y-111075790D01*
X134745505Y-111075790D01*
X136221696Y-110551981D02*
X135745505Y-110551981D01*
X135697886Y-111028171D01*
X135745505Y-110980552D01*
X135840743Y-110932933D01*
X136078839Y-110932933D01*
X136174077Y-110980552D01*
X136221696Y-111028171D01*
X136269315Y-111123410D01*
X136269315Y-111361505D01*
X136221696Y-111456743D01*
X136174077Y-111504362D01*
X136078839Y-111551981D01*
X135840743Y-111551981D01*
X135745505Y-111504362D01*
X135697886Y-111456743D01*
X128343067Y-118889981D02*
X128343067Y-119604267D01*
X128295447Y-119747124D01*
X128200209Y-119842362D01*
X128057352Y-119889981D01*
X127962114Y-119889981D01*
X128724019Y-118889981D02*
X129390686Y-118889981D01*
X128962114Y-119889981D01*
X154076495Y-107275381D02*
X154076495Y-108084905D01*
X154124114Y-108180143D01*
X154171733Y-108227762D01*
X154266971Y-108275381D01*
X154457448Y-108275381D01*
X154552686Y-108227762D01*
X154600305Y-108180143D01*
X154647924Y-108084905D01*
X154647924Y-107275381D01*
X155647924Y-108275381D02*
X155076495Y-108275381D01*
X155362209Y-108275381D02*
X155362209Y-107275381D01*
X155266971Y-107418238D01*
X155171733Y-107513476D01*
X155076495Y-107561095D01*
X151993695Y-111644181D02*
X151993695Y-112453705D01*
X152041314Y-112548943D01*
X152088933Y-112596562D01*
X152184171Y-112644181D01*
X152374648Y-112644181D01*
X152469886Y-112596562D01*
X152517505Y-112548943D01*
X152565124Y-112453705D01*
X152565124Y-111644181D01*
X152993695Y-111739419D02*
X153041314Y-111691800D01*
X153136552Y-111644181D01*
X153374648Y-111644181D01*
X153469886Y-111691800D01*
X153517505Y-111739419D01*
X153565124Y-111834657D01*
X153565124Y-111929895D01*
X153517505Y-112072752D01*
X152946076Y-112644181D01*
X153565124Y-112644181D01*
X134201067Y-113069962D02*
X134343924Y-113117581D01*
X134582020Y-113117581D01*
X134677258Y-113069962D01*
X134724877Y-113022343D01*
X134772496Y-112927105D01*
X134772496Y-112831867D01*
X134724877Y-112736629D01*
X134677258Y-112689010D01*
X134582020Y-112641390D01*
X134391543Y-112593771D01*
X134296305Y-112546152D01*
X134248686Y-112498533D01*
X134201067Y-112403295D01*
X134201067Y-112308057D01*
X134248686Y-112212819D01*
X134296305Y-112165200D01*
X134391543Y-112117581D01*
X134629639Y-112117581D01*
X134772496Y-112165200D01*
X135105829Y-112117581D02*
X135343924Y-113117581D01*
X135534401Y-112403295D01*
X135724877Y-113117581D01*
X135962972Y-112117581D01*
X136296305Y-112212819D02*
X136343924Y-112165200D01*
X136439162Y-112117581D01*
X136677258Y-112117581D01*
X136772496Y-112165200D01*
X136820115Y-112212819D01*
X136867734Y-112308057D01*
X136867734Y-112403295D01*
X136820115Y-112546152D01*
X136248686Y-113117581D01*
X136867734Y-113117581D01*
X146558095Y-124412381D02*
X146558095Y-125221905D01*
X146605714Y-125317143D01*
X146653333Y-125364762D01*
X146748571Y-125412381D01*
X146939048Y-125412381D01*
X147034286Y-125364762D01*
X147081905Y-125317143D01*
X147129524Y-125221905D01*
X147129524Y-124412381D01*
X147510476Y-124412381D02*
X148129524Y-124412381D01*
X147796190Y-124793333D01*
X147939048Y-124793333D01*
X148034286Y-124840952D01*
X148081905Y-124888571D01*
X148129524Y-124983810D01*
X148129524Y-125221905D01*
X148081905Y-125317143D01*
X148034286Y-125364762D01*
X147939048Y-125412381D01*
X147653333Y-125412381D01*
X147558095Y-125364762D01*
X147510476Y-125317143D01*
X135048667Y-102703381D02*
X135048667Y-103417667D01*
X135001047Y-103560524D01*
X134905809Y-103655762D01*
X134762952Y-103703381D01*
X134667714Y-103703381D01*
X135953429Y-102703381D02*
X135762952Y-102703381D01*
X135667714Y-102751000D01*
X135620095Y-102798619D01*
X135524857Y-102941476D01*
X135477238Y-103131952D01*
X135477238Y-103512905D01*
X135524857Y-103608143D01*
X135572476Y-103655762D01*
X135667714Y-103703381D01*
X135858191Y-103703381D01*
X135953429Y-103655762D01*
X136001048Y-103608143D01*
X136048667Y-103512905D01*
X136048667Y-103274810D01*
X136001048Y-103179571D01*
X135953429Y-103131952D01*
X135858191Y-103084333D01*
X135667714Y-103084333D01*
X135572476Y-103131952D01*
X135524857Y-103179571D01*
X135477238Y-103274810D01*
X148637667Y-102728781D02*
X148637667Y-103443067D01*
X148590047Y-103585924D01*
X148494809Y-103681162D01*
X148351952Y-103728781D01*
X148256714Y-103728781D01*
X149590048Y-102728781D02*
X149113857Y-102728781D01*
X149066238Y-103204971D01*
X149113857Y-103157352D01*
X149209095Y-103109733D01*
X149447191Y-103109733D01*
X149542429Y-103157352D01*
X149590048Y-103204971D01*
X149637667Y-103300210D01*
X149637667Y-103538305D01*
X149590048Y-103633543D01*
X149542429Y-103681162D01*
X149447191Y-103728781D01*
X149209095Y-103728781D01*
X149113857Y-103681162D01*
X149066238Y-103633543D01*
X158797667Y-102703381D02*
X158797667Y-103417667D01*
X158750047Y-103560524D01*
X158654809Y-103655762D01*
X158511952Y-103703381D01*
X158416714Y-103703381D01*
X159702429Y-103036714D02*
X159702429Y-103703381D01*
X159464333Y-102655762D02*
X159226238Y-103370048D01*
X159845286Y-103370048D01*
M02*
