G04 #@! TF.FileFunction,Soldermask,Bot*
%FSLAX46Y46*%
G04 Gerber Fmt 4.6, Leading zero omitted, Abs format (unit mm)*
G04 Created by KiCad (PCBNEW 4.0.6) date Saturday, 10. February 2018 20:56:55*
%MOMM*%
%LPD*%
G01*
G04 APERTURE LIST*
%ADD10C,0.100000*%
%ADD11C,1.924000*%
%ADD12R,1.500000X2.900000*%
%ADD13R,2.900000X1.500000*%
%ADD14R,2.100000X2.100000*%
%ADD15O,2.100000X2.100000*%
%ADD16R,1.700000X1.100000*%
%ADD17C,2.200000*%
G04 APERTURE END LIST*
D10*
D11*
X162702400Y-107950000D03*
X157622400Y-107950000D03*
X147442400Y-107950000D03*
X144902400Y-107950000D03*
D12*
X145034000Y-116775000D03*
X147034000Y-116775000D03*
X149034000Y-116775000D03*
X151034000Y-116775000D03*
X153034000Y-116775000D03*
X155034000Y-116775000D03*
X157034000Y-116775000D03*
X159034000Y-116775000D03*
X159034000Y-132175000D03*
X157034000Y-132175000D03*
X155034000Y-132175000D03*
X153034000Y-132175000D03*
X151034000Y-132175000D03*
X149034000Y-132175000D03*
X147034000Y-132175000D03*
X145034000Y-132175000D03*
D13*
X160734000Y-119465000D03*
X160734000Y-121465000D03*
X160734000Y-123465000D03*
X160734000Y-125465000D03*
X160734000Y-127465000D03*
X160734000Y-129465000D03*
D11*
X132620000Y-121960000D03*
X132620000Y-126960000D03*
X162020000Y-116760000D03*
X162020000Y-132160000D03*
D14*
X128778000Y-117729000D03*
D15*
X128778000Y-115189000D03*
D14*
X128778000Y-133223000D03*
D15*
X128778000Y-130683000D03*
D14*
X128778000Y-112268000D03*
D15*
X128778000Y-109728000D03*
X128778000Y-107188000D03*
X128778000Y-104648000D03*
X128778000Y-102108000D03*
X128778000Y-99568000D03*
D11*
X144891600Y-112064800D03*
X149971600Y-112064800D03*
X160151600Y-112064800D03*
X162691600Y-112064800D03*
D16*
X163322000Y-128458000D03*
X163322000Y-126558000D03*
X163322000Y-120462000D03*
X163322000Y-122362000D03*
X155092400Y-112537200D03*
X155092400Y-114437200D03*
X157022800Y-112537200D03*
X157022800Y-114437200D03*
D17*
X161798000Y-101473000D03*
X156718000Y-101473000D03*
X151638000Y-101498400D03*
X146558000Y-101498400D03*
X138049000Y-101473000D03*
X132969000Y-101473000D03*
D14*
X128676400Y-121767600D03*
D15*
X128676400Y-124307600D03*
X128676400Y-126847600D03*
M02*
