solid HousingBottom
facet normal 0.999999997816401 -3.925930994559634e-10 -6.608477970911436e-05
  outer loop
    vertex 16.260444166286288 29.703856923188564 2.0044614421930653
    vertex 16.26070850540021 20.483487320645946 6.0045161350123095
    vertex 16.260444166286288 20.482691962403305 2.0045162228210485
  endloop
endfacet
facet normal 0.999999997816401 -3.925930994559634e-10 -6.608477970911436e-05
  outer loop
    vertex 16.26070850540021 20.483487320645946 6.0045161350123095
    vertex 16.260444166286288 29.703856923188564 2.0044614421930653
    vertex 16.26070850540021 29.7046522814312 6.004461354384327
  endloop
endfacet
facet normal 7.441298453972864e-29 -3.1009519871027984e-16 1.0
  outer loop
    vertex 37.85788287815451 9.679331163962358 6.00394880302606
    vertex 36.718501739143456 11.952799516806992 6.00394880302606
    vertex 36.71841535299373 9.67933116396181 6.00394880302606
  endloop
endfacet
facet normal 7.441298453972864e-29 -3.1009519871027984e-16 1.0
  outer loop
    vertex 36.718501739143456 11.952799516806992 6.00394880302606
    vertex 37.85788287815451 9.679331163962358 6.00394880302606
    vertex 37.85788287815451 11.952799516806992 6.00394880302606
  endloop
endfacet
facet normal 0.9999998865620128 -3.08930831992755e-05 -0.0004753120862001205
  outer loop
    vertex 38.610355022725265 8.526803671315973e-06 1.25261319019994
    vertex 38.61180801463008 37.92048123202362 2.001918375326709
    vertex 38.6103572479825 0.0 2.0060749785059193
  endloop
endfacet
facet normal 0.9999998865620128 -3.08930831992755e-05 -0.0004753120862001205
  outer loop
    vertex 38.61180801463008 37.92048123202362 2.001918375326709
    vertex 38.610355022725265 8.526803671315973e-06 1.25261319019994
    vertex 38.61108040604904 37.92048195378503 1.2530456062483954
  endloop
endfacet
facet normal 0.9999997613695274 0.0006601069394738051 -0.00020376387527586032
  outer loop
    vertex 37.85623980846391 5.755264317508026 2.007180403608091
    vertex 37.860357247982485 0.7500250839029206 6.0
    vertex 37.860357247982485 0.7500249862044259 2.0060912125186827
  endloop
endfacet
facet normal 0.9999997613695274 0.0006601069394738051 -0.00020376387527586032
  outer loop
    vertex 37.860357247982485 0.7500250839029206 6.0
    vertex 37.85623980846391 5.755264317508026 2.007180403608091
    vertex 37.85786743842906 5.755262997799554 6.002531525803502
  endloop
endfacet
facet normal 1.9865555683710794e-05 0.00014728673728535449 0.9999999889559884
  outer loop
    vertex 3.78771475849607 15.758863690219924 6.007130691280992
    vertex 13.835806187789828 31.85124133544505 6.002849918206636
    vertex 3.787712908089776 31.851243528928094 5.999404596025043
  endloop
endfacet
facet normal 1.9865555683710794e-05 0.00014728673728535449 0.9999999889559884
  outer loop
    vertex 13.835806187789828 31.85124133544505 6.002849918206636
    vertex 3.78771475849607 15.758863690219924 6.007130691280992
    vertex 8.260708675637021 20.48348712553928 6.006173166221389
  endloop
endfacet
facet normal 1.9865555683710794e-05 0.00014728673728535449 0.9999999889559884
  outer loop
    vertex 8.260708675637021 20.48348712553928 6.006173166221389
    vertex 3.78771475849607 15.758863690219924 6.007130691280992
    vertex 8.260708675637021 15.758863690219924 6.006091124709944
  endloop
endfacet
facet normal 1.9865555683710794e-05 0.00014728673728535449 0.9999999889559884
  outer loop
    vertex 13.835806187789828 31.85124133544505 6.002849918206636
    vertex 8.260708675637021 20.48348712553928 6.006173166221389
    vertex 16.26070850540021 20.483487320645946 6.0045161350123095
  endloop
endfacet
facet normal 1.9865555683710794e-05 0.00014728673728535449 0.9999999889559884
  outer loop
    vertex 28.311874445597383 25.704652301307075 6.0037042006019465
    vertex 23.31187444559739 29.7046522814312 6.004102957399093
    vertex 23.31187444559739 25.704652301307075 6.0037042006019465
  endloop
endfacet
facet normal 1.9865555683710794e-05 0.00014728673728535449 0.9999999889559884
  outer loop
    vertex 23.31187444559739 29.7046522814312 6.004102957399093
    vertex 18.112391239073776 31.851241931708316 6.003420354661649
    vertex 16.26070850540021 29.7046522814312 6.004461354384327
  endloop
endfacet
facet normal 1.9865555683710794e-05 0.00014728673728535449 0.9999999889559884
  outer loop
    vertex 18.112391239073776 31.851241931708316 6.003420354661649
    vertex 23.31187444559739 29.7046522814312 6.004102957399093
    vertex 37.86326233156514 31.85124133544505 6.002849918206636
  endloop
endfacet
facet normal 1.9865555683710794e-05 0.00014728673728535449 0.9999999889559884
  outer loop
    vertex 37.86326233156514 31.85124133544505 6.002849918206636
    vertex 23.31187444559739 29.7046522814312 6.004102957399093
    vertex 28.311874445597383 29.248149157425004 6.003575878369054
  endloop
endfacet
facet normal 1.9865555683710794e-05 0.00014728673728535449 0.9999999889559884
  outer loop
    vertex 28.311874445597383 29.248149157425004 6.003575878369054
    vertex 23.31187444559739 29.7046522814312 6.004102957399093
    vertex 28.311874445597383 25.704652301307075 6.0037042006019465
  endloop
endfacet
facet normal 1.9865555683710794e-05 0.00014728673728535449 0.9999999889559884
  outer loop
    vertex 37.86326233156514 31.85124133544505 6.002849918206636
    vertex 28.311874445597383 29.248149157425004 6.003575878369054
    vertex 37.86326233156514 29.248149116798906 6.003948803026059
  endloop
endfacet
facet normal 1.9865555683710794e-05 0.00014728673728535449 0.9999999889559884
  outer loop
    vertex 13.835806175263865 35.89496092674958 6.003504879097431
    vertex 3.7877138724499457 37.1705805405899 6.004804444214471
    vertex 3.7877138724499457 35.894960867754904 6.004754756345087
  endloop
endfacet
facet normal 1.9865555683710794e-05 0.00014728673728535449 0.9999999889559884
  outer loop
    vertex 3.7877138724499457 37.1705805405899 6.004804444214471
    vertex 13.835806175263865 35.89496092674958 6.003504879097431
    vertex 37.86326230626381 37.17057374556774 6.0025201126774705
  endloop
endfacet
facet normal 1.9865555683710794e-05 0.00014728673728535449 0.9999999889559884
  outer loop
    vertex 37.86326230626381 37.17057374556774 6.0025201126774705
    vertex 13.835806175263865 35.89496092674958 6.003504879097431
    vertex 18.112393930054385 35.89495903877567 6.001823945036106
  endloop
endfacet
facet normal 1.9865555683710794e-05 0.00014728673728535449 0.9999999889559884
  outer loop
    vertex 18.112393930054385 35.89495903877567 6.001823945036106
    vertex 13.835806175263865 35.89496092674958 6.003504879097431
    vertex 13.835806187789828 31.85124133544505 6.002849918206636
  endloop
endfacet
facet normal 1.9865555683710794e-05 0.00014728673728535449 0.9999999889559884
  outer loop
    vertex 18.112393930054385 35.89495903877567 6.001823945036106
    vertex 13.835806187789828 31.85124133544505 6.002849918206636
    vertex 16.26070850540021 29.7046522814312 6.004461354384327
  endloop
endfacet
facet normal 1.9865555683710794e-05 0.00014728673728535449 0.9999999889559884
  outer loop
    vertex 16.26070850540021 29.7046522814312 6.004461354384327
    vertex 13.835806187789828 31.85124133544505 6.002849918206636
    vertex 16.26070850540021 20.483487320645946 6.0045161350123095
  endloop
endfacet
facet normal 1.9865555683710794e-05 0.00014728673728535449 0.9999999889559884
  outer loop
    vertex 18.112393930054385 35.89495903877567 6.001823945036106
    vertex 16.26070850540021 29.7046522814312 6.004461354384327
    vertex 18.112391239073776 31.851241931708316 6.003420354661649
  endloop
endfacet
facet normal 1.9865555683710794e-05 0.00014728673728535449 0.9999999889559884
  outer loop
    vertex 37.86326230626381 37.17057374556774 6.0025201126774705
    vertex 18.112393930054385 35.89495903877567 6.001823945036106
    vertex 37.86326233156514 35.89496107344866 6.002771470776756
  endloop
endfacet
facet normal 3.7731356650302873e-07 0.9999999991675006 -4.0802652987634904e-05
  outer loop
    vertex 0.0 37.92049637406317 2.0046890723942914
    vertex 38.61108040604904 37.92048195378503 1.2530456062483954
    vertex 7.822039217026955e-05 37.92046121784094 1.252311650306434
  endloop
endfacet
facet normal 3.7731356650302873e-07 0.9999999991675006 -4.0802652987634904e-05
  outer loop
    vertex 38.61108040604904 37.92048195378503 1.2530456062483954
    vertex 0.0 37.92049637406317 2.0046890723942914
    vertex 38.61180801463008 37.92048123202362 2.001918375326709
  endloop
endfacet
facet normal -4.593514039331127e-05 -0.0002017136897587517 0.9999999786007749
  outer loop
    vertex 37.860357247982485 0.7500250839029206 6.0
    vertex 8.260444336523097 1.4351005368684222 5.999134152400189
    vertex 3.7874509826701694 0.7500248972667326 6.00035044090445
  endloop
endfacet
facet normal -4.593514039331127e-05 -0.0002017136897587517 0.9999999786007749
  outer loop
    vertex 8.260444336523097 1.4351005368684222 5.999134152400189
    vertex 37.860357247982485 0.7500250839029206 6.0
    vertex 37.15676478573098 1.4334610727235217 5.999134152400189
  endloop
endfacet
facet normal -4.593514039331127e-05 -0.0002017136897587517 0.9999999786007749
  outer loop
    vertex 37.15676478573098 1.4334610727235217 5.999134152400189
    vertex 37.860357247982485 0.7500250839029206 6.0
    vertex 37.15676532216828 5.755263327726123 6.002531525803502
  endloop
endfacet
facet normal -4.593514039331127e-05 -0.0002017136897587517 0.9999999786007749
  outer loop
    vertex 37.15676532216828 5.755263327726123 6.002531525803502
    vertex 37.860357247982485 0.7500250839029206 6.0
    vertex 37.85786743842906 5.755262997799554 6.002531525803502
  endloop
endfacet
facet normal -4.593514039331127e-05 -0.0002017136897587517 0.9999999786007749
  outer loop
    vertex 3.7874509826701694 0.7500248972667326 6.00035044090445
    vertex 8.260444336523097 5.75806833197729 5.999134152400189
    vertex 3.787450970863207 5.75806833197729 5.999134152400189
  endloop
endfacet
facet normal -4.593514039331127e-05 -0.0002017136897587517 0.9999999786007749
  outer loop
    vertex 8.260444336523097 5.75806833197729 5.999134152400189
    vertex 3.7874509826701694 0.7500248972667326 6.00035044090445
    vertex 8.260444336523097 1.4351005368684222 5.999134152400189
  endloop
endfacet
facet normal 0.9999999978164011 -2.393157602739612e-09 -6.608477931132299e-05
  outer loop
    vertex 28.31161010648347 29.247353799182367 2.003575966177792
    vertex 28.311874445597383 25.704652301307075 6.0037042006019465
    vertex 28.31161010648347 25.70385694306444 2.0037042884106855
  endloop
endfacet
facet normal 0.9999999978164011 -2.393157602739612e-09 -6.608477931132299e-05
  outer loop
    vertex 28.311874445597383 25.704652301307075 6.0037042006019465
    vertex 28.31161010648347 29.247353799182367 2.003575966177792
    vertex 28.311874445597383 29.248149157425004 6.003575878369054
  endloop
endfacet
facet normal 0.9999999978161709 -6.915614244160173e-07 -6.608464227738938e-05
  outer loop
    vertex 18.11212959094046 35.894163680533026 2.0018240328448447
    vertex 18.112391239073776 31.851241931708316 6.003420354661649
    vertex 18.112126899959854 31.85044657346567 2.003420442470388
  endloop
endfacet
facet normal 0.9999999978161709 -6.915614244160173e-07 -6.608464227738938e-05
  outer loop
    vertex 18.112391239073776 31.851241931708316 6.003420354661649
    vertex 18.11212959094046 35.894163680533026 2.0018240328448447
    vertex 18.112393930054385 35.89495903877567 6.001823945036106
  endloop
endfacet
facet normal -0.9999999978164008 -1.3801380324882075e-08 6.608478253143783e-05
  outer loop
    vertex 13.835806187789828 31.85124133544505 6.002849918206636
    vertex 13.835541836149941 35.89416556850695 2.003504966906169
    vertex 13.835541848675906 31.8504459772024 2.002850006015375
  endloop
endfacet
facet normal -0.9999999978164008 -1.3801380324882075e-08 6.608478253143783e-05
  outer loop
    vertex 13.835541836149941 35.89416556850695 2.003504966906169
    vertex 13.835806187789828 31.85124133544505 6.002849918206636
    vertex 13.835806175263865 35.89496092674958 6.003504879097431
  endloop
endfacet
facet normal 1.0106626280876665e-08 -0.9999999802314145 0.00019883956042619555
  outer loop
    vertex 23.31187444559739 29.7046522814312 6.004102957399093
    vertex 16.260444166286288 29.703856923188564 2.0044614421930653
    vertex 23.311610106483467 29.703856923188564 2.004103045207832
  endloop
endfacet
facet normal 1.0106626280876665e-08 -0.9999999802314145 0.00019883956042619555
  outer loop
    vertex 16.260444166286288 29.703856923188564 2.0044614421930653
    vertex 23.31187444559739 29.7046522814312 6.004102957399093
    vertex 16.26070850540021 29.7046522814312 6.004461354384327
  endloop
endfacet
facet normal -5.002837394440871e-16 -5.59999388282511e-17 1.0
  outer loop
    vertex 37.859525947845114 15.979660326219454 6.00394880302606
    vertex 37.15676274342697 22.266078019238126 6.00394880302606
    vertex 37.15676274342697 15.97965996558825 6.003948803026059
  endloop
endfacet
facet normal -5.002837394440871e-16 -5.59999388282511e-17 1.0
  outer loop
    vertex 37.15676274342697 22.266078019238126 6.00394880302606
    vertex 37.859525947845114 15.979660326219454 6.00394880302606
    vertex 37.86135213090118 22.266078005958295 6.00394880302606
  endloop
endfacet
facet normal 2.2797814391931e-07 -0.9999999999999643 1.405515358625485e-07
  outer loop
    vertex 37.859525947845114 15.979660326219454 6.00394880302606
    vertex 37.15676274342697 15.979659604957043 2.008818872642279
    vertex 37.85623980846391 15.97965956304704 2.008695136739288
  endloop
endfacet
facet normal 2.2797814391931e-07 -0.9999999999999643 1.405515358625485e-07
  outer loop
    vertex 37.15676274342697 15.979659604957043 2.008818872642279
    vertex 37.859525947845114 15.979660326219454 6.00394880302606
    vertex 37.15676274342697 15.97965996558825 6.003948803026059
  endloop
endfacet
facet normal 6.557375294080851e-08 -0.999999980231413 0.00019883955676066237
  outer loop
    vertex 16.26070850540021 20.483487320645946 6.0045161350123095
    vertex 8.260444336523097 20.482691767296643 2.006173254030127
    vertex 16.260444166286288 20.482691962403305 2.0045162228210485
  endloop
endfacet
facet normal 6.557375294080851e-08 -0.999999980231413 0.00019883955676066237
  outer loop
    vertex 8.260444336523097 20.482691767296643 2.006173254030127
    vertex 16.26070850540021 20.483487320645946 6.0045161350123095
    vertex 8.260708675637021 20.48348712553928 6.006173166221389
  endloop
endfacet
facet normal -0.9999999974301197 5.180504546688302e-05 4.955802395747795e-05
  outer loop
    vertex 3.7877138724499457 35.894960867754904 6.004754756345087
    vertex 3.787581702892978 37.1705805405899 2.004754844153825
    vertex 3.787449533336022 35.894165509512256 2.004754844153825
  endloop
endfacet
facet normal -0.9999999974301197 5.180504546688302e-05 4.955802395747795e-05
  outer loop
    vertex 3.787581702892978 37.1705805405899 2.004754844153825
    vertex 3.7877138724499457 35.894960867754904 6.004754756345087
    vertex 3.7877138724499457 37.1705805405899 6.004804444214471
  endloop
endfacet
facet normal 8.510025775603812e-05 0.9999999752954677 0.000205346074800878
  outer loop
    vertex 8.260444336523097 1.4351005368684222 5.999134152400189
    vertex 37.15676505394963 1.4334610727235217 2.00718040360809
    vertex 8.260444336523097 1.436740001013317 2.0060912125186836
  endloop
endfacet
facet normal 8.510025775603812e-05 0.9999999752954677 0.000205346074800878
  outer loop
    vertex 37.15676505394963 1.4334610727235217 2.00718040360809
    vertex 8.260444336523097 1.4351005368684222 5.999134152400189
    vertex 37.15676478573098 1.4334610727235217 5.999134152400189
  endloop
endfacet
facet normal 2.4446411391099598e-08 0.9999999802314137 -0.00019883956271141137
  outer loop
    vertex 18.112126899959854 31.85044657346567 2.003420442470388
    vertex 37.86326233156514 31.85124133544505 6.002849918206636
    vertex 37.86299799245123 31.8504459772024 2.002850006015375
  endloop
endfacet
facet normal 2.4446411391099598e-08 0.9999999802314137 -0.00019883956271141137
  outer loop
    vertex 37.86326233156514 31.85124133544505 6.002849918206636
    vertex 18.112126899959854 31.85044657346567 2.003420442470388
    vertex 18.112391239073776 31.851241931708316 6.003420354661649
  endloop
endfacet
facet normal 9.347778133607801e-08 -0.9999999802314112 0.00019883955491700663
  outer loop
    vertex 37.86299799245123 35.89416571520602 2.0027715585854944
    vertex 18.112393930054385 35.89495903877567 6.001823945036106
    vertex 18.11212959094046 35.894163680533026 2.0018240328448447
  endloop
endfacet
facet normal 9.347778133607801e-08 -0.9999999802314112 0.00019883955491700663
  outer loop
    vertex 18.112393930054385 35.89495903877567 6.001823945036106
    vertex 37.86299799245123 35.89416571520602 2.0027715585854944
    vertex 37.86326233156514 35.89496107344866 6.002771470776756
  endloop
endfacet
facet normal 0.0 1.0 0.0
  outer loop
    vertex 36.718501739143456 11.952799516806992 2.008728751882228
    vertex 37.85788287815451 11.952799516806992 6.00394880302606
    vertex 37.85623980846391 11.952799516806992 2.008711944310758
  endloop
endfacet
facet normal 0.0 1.0 0.0
  outer loop
    vertex 37.85788287815451 11.952799516806992 6.00394880302606
    vertex 36.718501739143456 11.952799516806992 2.008728751882228
    vertex 36.718501739143456 11.952799516806992 6.00394880302606
  endloop
endfacet
facet normal 1.0778856678551868e-07 -0.9999999999971316 -2.3927144165789713e-06
  outer loop
    vertex 37.86035502272526 0.750021005660947 1.2530456062483954
    vertex 0.7506439524700177 0.7500186838984223 5.287437154777307e-16
    vertex 37.860357247982485 0.7500218839006714 0.0
  endloop
endfacet
facet normal 1.0778856678551868e-07 -0.9999999999971316 -2.3927144165789713e-06
  outer loop
    vertex 0.7506439524700177 0.7500186838984223 5.287437154777307e-16
    vertex 37.86035502272526 0.750021005660947 1.2530456062483954
    vertex 0.750673412108501 0.7500191382446597 1.2529844169496733
  endloop
endfacet
facet normal -0.9999999978232983 -5.732160729244896e-08 6.598030302206334e-05
  outer loop
    vertex 3.78771475849607 15.758863690219924 6.007130691280992
    vertex 3.7874497112712824 31.850446117731384 2.004040992016298
    vertex 3.7874504193821465 15.758068331977288 2.007130779089731
  endloop
endfacet
facet normal -0.9999999978232983 -5.732160729244896e-08 6.598030302206334e-05
  outer loop
    vertex 3.7874497112712824 31.850446117731384 2.004040992016298
    vertex 3.78771475849607 15.758863690219924 6.007130691280992
    vertex 3.787712908089776 31.851243528928094 5.999404596025043
  endloop
endfacet
facet normal 0.9999999978164009 -2.7897419340081346e-08 -6.60847742373846e-05
  outer loop
    vertex 37.86299799245123 31.8504459772024 2.002850006015375
    vertex 37.86326233156514 29.248149116798906 6.003948803026059
    vertex 37.86299799245123 29.24735375855626 2.003948890834798
  endloop
endfacet
facet normal 0.9999999978164009 -2.7897419340081346e-08 -6.60847742373846e-05
  outer loop
    vertex 37.86326233156514 29.248149116798906 6.003948803026059
    vertex 37.86299799245123 31.8504459772024 2.002850006015375
    vertex 37.86326233156514 31.85124133544505 6.002849918206636
  endloop
endfacet
facet normal -1.0 -0.0 -0.0
  outer loop
    vertex 37.15676274342697 15.97965996558825 6.003948803026059
    vertex 37.15676274342697 22.266078032517964 2.0065188875069047
    vertex 37.15676274342697 15.979659604957043 2.008818872642279
  endloop
endfacet
facet normal -1.0 -0.0 -0.0
  outer loop
    vertex 37.15676274342697 22.266078032517964 2.0065188875069047
    vertex 37.15676274342697 15.97965996558825 6.003948803026059
    vertex 37.15676274342697 22.266078019238126 6.00394880302606
  endloop
endfacet
facet normal -0.999999997816401 -6.587938945331907e-09 6.60847810971203e-05
  outer loop
    vertex 23.31187444559739 25.704652301307075 6.0037042006019465
    vertex 23.311610106483467 29.703856923188564 2.004103045207832
    vertex 23.311610106483467 25.70385694306444 2.0037042884106855
  endloop
endfacet
facet normal -0.999999997816401 -6.587938945331907e-09 6.60847810971203e-05
  outer loop
    vertex 23.311610106483467 29.703856923188564 2.004103045207832
    vertex 23.31187444559739 25.704652301307075 6.0037042006019465
    vertex 23.31187444559739 29.7046522814312 6.004102957399093
  endloop
endfacet
facet normal 5.258463973706918e-05 8.624706662449702e-05 0.9999999948981497
  outer loop
    vertex 37.15676505394963 1.4334610727235217 2.00718040360809
    vertex 8.260444336523097 5.75806833197729 2.0060912125186836
    vertex 8.260444336523097 1.436740001013317 2.0060912125186836
  endloop
endfacet
facet normal 5.258463973706918e-05 8.624706662449702e-05 0.9999999948981497
  outer loop
    vertex 8.260444336523097 5.75806833197729 2.0060912125186836
    vertex 37.15676505394963 1.4334610727235217 2.00718040360809
    vertex 8.260444336523097 15.758068331977288 2.0060912125186836
  endloop
endfacet
facet normal 5.258463973706918e-05 8.624706662449702e-05 0.9999999948981497
  outer loop
    vertex 8.260444336523097 15.758068331977288 2.0060912125186836
    vertex 37.15676505394963 1.4334610727235217 2.00718040360809
    vertex 8.260444336523097 20.482691767296643 2.006173254030127
  endloop
endfacet
facet normal 5.258463973706918e-05 8.624706662449702e-05 0.9999999948981497
  outer loop
    vertex 8.260444336523097 20.482691767296643 2.006173254030127
    vertex 37.15676505394963 1.4334610727235217 2.00718040360809
    vertex 16.260444166286288 20.482691962403305 2.0045162228210485
  endloop
endfacet
facet normal 5.258463973706918e-05 8.624706662449702e-05 0.9999999948981497
  outer loop
    vertex 16.260444166286288 20.482691962403305 2.0045162228210485
    vertex 37.15676505394963 1.4334610727235217 2.00718040360809
    vertex 16.260444166286288 29.703856923188564 2.0044614421930653
  endloop
endfacet
facet normal 5.258463973706918e-05 8.624706662449702e-05 0.9999999948981497
  outer loop
    vertex 16.260444166286288 29.703856923188564 2.0044614421930653
    vertex 37.15676505394963 1.4334610727235217 2.00718040360809
    vertex 23.311610106483467 25.70385694306444 2.0037042884106855
  endloop
endfacet
facet normal 5.258463973706918e-05 8.624706662449702e-05 0.9999999948981497
  outer loop
    vertex 23.311610106483467 25.70385694306444 2.0037042884106855
    vertex 37.15676505394963 1.4334610727235217 2.00718040360809
    vertex 28.31161010648347 25.70385694306444 2.0037042884106855
  endloop
endfacet
facet normal 5.258463973706918e-05 8.624706662449702e-05 0.9999999948981497
  outer loop
    vertex 28.31161010648347 25.70385694306444 2.0037042884106855
    vertex 37.15676505394963 1.4334610727235217 2.00718040360809
    vertex 28.31161010648347 29.247353799182367 2.003575966177792
  endloop
endfacet
facet normal 5.258463973706918e-05 8.624706662449702e-05 0.9999999948981497
  outer loop
    vertex 28.31161010648347 29.247353799182367 2.003575966177792
    vertex 37.15676505394963 1.4334610727235217 2.00718040360809
    vertex 36.71841535299373 9.679331163961258 2.0087028471510537
  endloop
endfacet
facet normal 5.258463973706918e-05 8.624706662449702e-05 0.9999999948981497
  outer loop
    vertex 36.71841535299373 9.679331163961258 2.0087028471510537
    vertex 37.15676505394963 1.4334610727235217 2.00718040360809
    vertex 37.15676532216828 5.7552636576526925 2.007180403608091
  endloop
endfacet
facet normal 5.258463973706918e-05 8.624706662449702e-05 0.9999999948981497
  outer loop
    vertex 36.71841535299373 9.679331163961258 2.0087028471510537
    vertex 37.15676532216828 5.7552636576526925 2.007180403608091
    vertex 37.85623980846391 9.679331163962358 2.008702587005028
  endloop
endfacet
facet normal 5.258463973706918e-05 8.624706662449702e-05 0.9999999948981497
  outer loop
    vertex 37.85623980846391 9.679331163962358 2.008702587005028
    vertex 37.15676532216828 5.7552636576526925 2.007180403608091
    vertex 37.85623980846391 5.755264317508026 2.007180403608091
  endloop
endfacet
facet normal 5.258463973706918e-05 8.624706662449702e-05 0.9999999948981497
  outer loop
    vertex 37.85623980846391 9.679331163962358 2.008702587005028
    vertex 37.85623980846391 5.755264317508026 2.007180403608091
    vertex 37.860357247982485 0.7500249862044259 2.0060912125186827
  endloop
endfacet
facet normal 5.258463973706918e-05 8.624706662449702e-05 0.9999999948981497
  outer loop
    vertex 37.85623980846391 9.679331163962358 2.008702587005028
    vertex 37.860357247982485 0.7500249862044259 2.0060912125186827
    vertex 37.85623980846391 11.952799516806992 2.008711944310758
  endloop
endfacet
facet normal 5.258463973706918e-05 8.624706662449702e-05 0.9999999948981497
  outer loop
    vertex 37.85623980846391 11.952799516806992 2.008711944310758
    vertex 37.860357247982485 0.7500249862044259 2.0060912125186827
    vertex 37.85623980846391 15.97965956304704 2.008695136739288
  endloop
endfacet
facet normal 5.258463973706918e-05 8.624706662449702e-05 0.9999999948981497
  outer loop
    vertex 37.85623980846391 15.97965956304704 2.008695136739288
    vertex 37.860357247982485 0.7500249862044259 2.0060912125186827
    vertex 37.85944193023722 22.266078005958295 2.006442157725462
  endloop
endfacet
facet normal 5.258463973706918e-05 8.624706662449702e-05 0.9999999948981497
  outer loop
    vertex 0.0006563629786799474 0.0 2.0060587444931564
    vertex 3.787450970863207 0.7500248885059371 2.0060912125186827
    vertex 3.787449533336022 35.894165509512256 2.004754844153825
  endloop
endfacet
facet normal 5.258463973706918e-05 8.624706662449702e-05 0.9999999948981497
  outer loop
    vertex 3.787450970863207 0.7500248885059371 2.0060912125186827
    vertex 0.0006563629786799474 0.0 2.0060587444931564
    vertex 37.860357247982485 0.0 2.0060749785059193
  endloop
endfacet
facet normal 5.258463973706918e-05 8.624706662449702e-05 0.9999999948981497
  outer loop
    vertex 3.787449533336022 35.894165509512256 2.004754844153825
    vertex 3.787450970863207 0.7500248885059371 2.0060912125186827
    vertex 3.7874497112712824 31.850446117731384 2.004040992016298
  endloop
endfacet
facet normal 5.258463973706918e-05 8.624706662449702e-05 0.9999999948981497
  outer loop
    vertex 3.7874497112712824 31.850446117731384 2.004040992016298
    vertex 3.787450970863207 0.7500248885059371 2.0060912125186827
    vertex 3.7874504193821465 15.758068331977288 2.007130779089731
  endloop
endfacet
facet normal 5.258463973706918e-05 8.624706662449702e-05 0.9999999948981497
  outer loop
    vertex 3.787450970863207 0.7500248885059371 2.0060912125186827
    vertex 37.860357247982485 0.0 2.0060749785059193
    vertex 37.860357247982485 0.7500249862044259 2.0060912125186827
  endloop
endfacet
facet normal 5.258463973706918e-05 8.624706662449702e-05 0.9999999948981497
  outer loop
    vertex 37.860357247982485 0.7500249862044259 2.0060912125186827
    vertex 37.860357247982485 0.0 2.0060749785059193
    vertex 38.6103572479825 0.0 2.0060749785059193
  endloop
endfacet
facet normal 5.258463973706918e-05 8.624706662449702e-05 0.9999999948981497
  outer loop
    vertex 37.860357247982485 0.7500249862044259 2.0060912125186827
    vertex 38.6103572479825 0.0 2.0060749785059193
    vertex 37.86299799245123 29.24735375855626 2.003948890834798
  endloop
endfacet
facet normal 5.258463973706918e-05 8.624706662449702e-05 0.9999999948981497
  outer loop
    vertex 37.86299799245123 29.24735375855626 2.003948890834798
    vertex 38.6103572479825 0.0 2.0060749785059193
    vertex 37.86299799245123 31.8504459772024 2.002850006015375
  endloop
endfacet
facet normal 5.258463973706918e-05 8.624706662449702e-05 0.9999999948981497
  outer loop
    vertex 37.86299799245123 31.8504459772024 2.002850006015375
    vertex 38.6103572479825 0.0 2.0060749785059193
    vertex 37.86299799245123 35.89416571520602 2.0027715585854944
  endloop
endfacet
facet normal 5.258463973706918e-05 8.624706662449702e-05 0.9999999948981497
  outer loop
    vertex 0.0 37.92049637406317 2.0046890723942914
    vertex 3.787581702892978 37.1705805405899 2.004754844153825
    vertex 38.61180801463008 37.92048123202362 2.001918375326709
  endloop
endfacet
facet normal 5.258463973706918e-05 8.624706662449702e-05 0.9999999948981497
  outer loop
    vertex 3.787581702892978 37.1705805405899 2.004754844153825
    vertex 0.0 37.92049637406317 2.0046890723942914
    vertex 0.0006563629786799474 0.0 2.0060587444931564
  endloop
endfacet
facet normal 5.258463973706918e-05 8.624706662449702e-05 0.9999999948981497
  outer loop
    vertex 3.787581702892978 37.1705805405899 2.004754844153825
    vertex 0.0006563629786799474 0.0 2.0060587444931564
    vertex 3.787449533336022 35.894165509512256 2.004754844153825
  endloop
endfacet
facet normal 5.258463973706918e-05 8.624706662449702e-05 0.9999999948981497
  outer loop
    vertex 38.61180801463008 37.92048123202362 2.001918375326709
    vertex 3.787581702892978 37.1705805405899 2.004754844153825
    vertex 37.86180951537594 37.17057374556774 2.001231740296418
  endloop
endfacet
facet normal 5.258463973706918e-05 8.624706662449702e-05 0.9999999948981497
  outer loop
    vertex 38.61180801463008 37.92048123202362 2.001918375326709
    vertex 37.86180951537594 37.17057374556774 2.001231740296418
    vertex 37.86299799245123 35.89416571520602 2.0027715585854944
  endloop
endfacet
facet normal 5.258463973706918e-05 8.624706662449702e-05 0.9999999948981497
  outer loop
    vertex 38.61180801463008 37.92048123202362 2.001918375326709
    vertex 37.86299799245123 35.89416571520602 2.0027715585854944
    vertex 38.6103572479825 0.0 2.0060749785059193
  endloop
endfacet
facet normal 5.258463973706918e-05 8.624706662449702e-05 0.9999999948981497
  outer loop
    vertex 37.86299799245123 31.8504459772024 2.002850006015375
    vertex 18.11212959094046 35.894163680533026 2.0018240328448447
    vertex 18.112126899959854 31.85044657346567 2.003420442470388
  endloop
endfacet
facet normal 5.258463973706918e-05 8.624706662449702e-05 0.9999999948981497
  outer loop
    vertex 18.11212959094046 35.894163680533026 2.0018240328448447
    vertex 37.86299799245123 31.8504459772024 2.002850006015375
    vertex 37.86299799245123 35.89416571520602 2.0027715585854944
  endloop
endfacet
facet normal 5.258463973706918e-05 8.624706662449702e-05 0.9999999948981497
  outer loop
    vertex 28.31161010648347 29.247353799182367 2.003575966177792
    vertex 37.15676274342697 22.266078032517964 2.0065188875069047
    vertex 37.86299799245123 29.24735375855626 2.003948890834798
  endloop
endfacet
facet normal 5.258463973706918e-05 8.624706662449702e-05 0.9999999948981497
  outer loop
    vertex 37.15676274342697 22.266078032517964 2.0065188875069047
    vertex 28.31161010648347 29.247353799182367 2.003575966177792
    vertex 36.718501739143456 11.952799516806992 2.008728751882228
  endloop
endfacet
facet normal 5.258463973706918e-05 8.624706662449702e-05 0.9999999948981497
  outer loop
    vertex 36.718501739143456 11.952799516806992 2.008728751882228
    vertex 28.31161010648347 29.247353799182367 2.003575966177792
    vertex 36.71841535299373 9.679331163961258 2.0087028471510537
  endloop
endfacet
facet normal 5.258463973706918e-05 8.624706662449702e-05 0.9999999948981497
  outer loop
    vertex 37.15676274342697 22.266078032517964 2.0065188875069047
    vertex 36.718501739143456 11.952799516806992 2.008728751882228
    vertex 37.15676274342697 15.979659604957043 2.008818872642279
  endloop
endfacet
facet normal 5.258463973706918e-05 8.624706662449702e-05 0.9999999948981497
  outer loop
    vertex 37.86299799245123 29.24735375855626 2.003948890834798
    vertex 37.15676274342697 22.266078032517964 2.0065188875069047
    vertex 37.85944193023722 22.266078005958295 2.006442157725462
  endloop
endfacet
facet normal 5.258463973706918e-05 8.624706662449702e-05 0.9999999948981497
  outer loop
    vertex 37.86299799245123 29.24735375855626 2.003948890834798
    vertex 37.85944193023722 22.266078005958295 2.006442157725462
    vertex 37.860357247982485 0.7500249862044259 2.0060912125186827
  endloop
endfacet
facet normal 5.258463973706918e-05 8.624706662449702e-05 0.9999999948981497
  outer loop
    vertex 37.85623980846391 11.952799516806992 2.008711944310758
    vertex 37.15676274342697 15.979659604957043 2.008818872642279
    vertex 36.718501739143456 11.952799516806992 2.008728751882228
  endloop
endfacet
facet normal 5.258463973706918e-05 8.624706662449702e-05 0.9999999948981497
  outer loop
    vertex 37.15676274342697 15.979659604957043 2.008818872642279
    vertex 37.85623980846391 11.952799516806992 2.008711944310758
    vertex 37.85623980846391 15.97965956304704 2.008695136739288
  endloop
endfacet
facet normal 5.258463973706918e-05 8.624706662449702e-05 0.9999999948981497
  outer loop
    vertex 3.7874504193821465 15.758068331977288 2.007130779089731
    vertex 3.787450970863207 5.75806833197729 2.0060912125186827
    vertex 8.260444336523097 15.758068331977288 2.0060912125186836
  endloop
endfacet
facet normal 5.258463973706918e-05 8.624706662449702e-05 0.9999999948981497
  outer loop
    vertex 3.787450970863207 5.75806833197729 2.0060912125186827
    vertex 3.7874504193821465 15.758068331977288 2.007130779089731
    vertex 3.787450970863207 0.7500248885059371 2.0060912125186827
  endloop
endfacet
facet normal 5.258463973706918e-05 8.624706662449702e-05 0.9999999948981497
  outer loop
    vertex 8.260444336523097 15.758068331977288 2.0060912125186836
    vertex 3.787450970863207 5.75806833197729 2.0060912125186827
    vertex 8.260444336523097 5.75806833197729 2.0060912125186836
  endloop
endfacet
facet normal 5.258463973706918e-05 8.624706662449702e-05 0.9999999948981497
  outer loop
    vertex 23.311610106483467 29.703856923188564 2.004103045207832
    vertex 16.260444166286288 29.703856923188564 2.0044614421930653
    vertex 23.311610106483467 25.70385694306444 2.0037042884106855
  endloop
endfacet
facet normal 5.258463973706918e-05 8.624706662449702e-05 0.9999999948981497
  outer loop
    vertex 3.7874497112712824 31.850446117731384 2.004040992016298
    vertex 13.835541836149941 35.89416556850695 2.003504966906169
    vertex 3.787449533336022 35.894165509512256 2.004754844153825
  endloop
endfacet
facet normal 5.258463973706918e-05 8.624706662449702e-05 0.9999999948981497
  outer loop
    vertex 13.835541836149941 35.89416556850695 2.003504966906169
    vertex 3.7874497112712824 31.850446117731384 2.004040992016298
    vertex 13.835541848675906 31.8504459772024 2.002850006015375
  endloop
endfacet
facet normal -1.0 -8.204576221271263e-10 8.599589676271225e-10
  outer loop
    vertex 3.7874509826701694 0.7500248972667326 6.00035044090445
    vertex 3.787450970863207 5.75806833197729 2.0060912125186827
    vertex 3.787450970863207 0.7500248885059371 2.0060912125186827
  endloop
endfacet
facet normal -1.0 -8.204576221271263e-10 8.599589676271225e-10
  outer loop
    vertex 3.787450970863207 5.75806833197729 2.0060912125186827
    vertex 3.7874509826701694 0.7500248972667326 6.00035044090445
    vertex 3.787450970863207 5.75806833197729 5.999134152400189
  endloop
endfacet
facet normal -0.9999999990590887 -1.6546278791331608e-05 -4.010041534047805e-05
  outer loop
    vertex 0.0 37.92049637406317 2.0046890723942914
    vertex 0.0006858226171519988 6.854350729934566e-06 1.2529519489241485
    vertex 0.0006563629786799474 0.0 2.0060587444931564
  endloop
endfacet
facet normal -0.9999999990590887 -1.6546278791331608e-05 -4.010041534047805e-05
  outer loop
    vertex 0.0006858226171519988 6.854350729934566e-06 1.2529519489241485
    vertex 0.0 37.92049637406317 2.0046890723942914
    vertex 7.822039217026955e-05 37.92046121784094 1.252311650306434
  endloop
endfacet
facet normal 1.384890498507395e-07 0.9999999801573944 -0.0001992114244152661
  outer loop
    vertex 3.7874497112712824 31.850446117731384 2.004040992016298
    vertex 13.835806187789828 31.85124133544505 6.002849918206636
    vertex 13.835541848675906 31.8504459772024 2.002850006015375
  endloop
endfacet
facet normal 1.384890498507395e-07 0.9999999801573944 -0.0001992114244152661
  outer loop
    vertex 13.835806187789828 31.85124133544505 6.002849918206636
    vertex 3.7874497112712824 31.850446117731384 2.004040992016298
    vertex 3.787712908089776 31.851243528928094 5.999404596025043
  endloop
endfacet
facet normal 0.0 1.0 0.0
  outer loop
    vertex 3.787450970863207 5.75806833197729 5.999134152400189
    vertex 8.260444336523097 5.75806833197729 2.0060912125186836
    vertex 3.787450970863207 5.75806833197729 2.0060912125186827
  endloop
endfacet
facet normal 0.0 1.0 0.0
  outer loop
    vertex 8.260444336523097 5.75806833197729 2.0060912125186836
    vertex 3.787450970863207 5.75806833197729 5.999134152400189
    vertex 8.260444336523097 5.75806833197729 5.999134152400189
  endloop
endfacet
facet normal -2.3235437262955287e-08 -0.9999999999644305 -8.434378315986288e-06
  outer loop
    vertex 38.6103572479825 0.0 2.0060749785059193
    vertex 0.0006858226171519988 6.854350729934566e-06 1.2529519489241485
    vertex 38.610355022725265 8.526803671315973e-06 1.25261319019994
  endloop
endfacet
facet normal -2.3235437262955287e-08 -0.9999999999644305 -8.434378315986288e-06
  outer loop
    vertex 0.0006858226171519988 6.854350729934566e-06 1.2529519489241485
    vertex 38.6103572479825 0.0 2.0060749785059193
    vertex 0.0006563629786799474 0.0 2.0060587444931564
  endloop
endfacet
facet normal -2.3235437262955287e-08 -0.9999999999644305 -8.434378315986288e-06
  outer loop
    vertex 0.0006563629786799474 0.0 2.0060587444931564
    vertex 38.6103572479825 0.0 2.0060749785059193
    vertex 37.860357247982485 0.0 2.0060749785059193
  endloop
endfacet
facet normal 0.9999999978164009 1.1475401817974133e-09 -6.608478001535378e-05
  outer loop
    vertex 8.260444336523097 20.482691767296643 2.006173254030127
    vertex 8.260708675637021 15.758863690219924 6.006091124709944
    vertex 8.260444336523097 15.758068331977288 2.0060912125186836
  endloop
endfacet
facet normal 0.9999999978164009 1.1475401817974133e-09 -6.608478001535378e-05
  outer loop
    vertex 8.260708675637021 15.758863690219924 6.006091124709944
    vertex 8.260444336523097 20.482691767296643 2.006173254030127
    vertex 8.260708675637021 20.48348712553928 6.006173166221389
  endloop
endfacet
facet normal 1.0 -3.712415648943045e-33 3.531099621272268e-16
  outer loop
    vertex 8.260444336523097 1.436740001013317 2.0060912125186836
    vertex 8.260444336523097 5.75806833197729 5.999134152400189
    vertex 8.260444336523097 1.4351005368684222 5.999134152400189
  endloop
endfacet
facet normal 1.0 -3.712415648943045e-33 3.531099621272268e-16
  outer loop
    vertex 8.260444336523097 5.75806833197729 5.999134152400189
    vertex 8.260444336523097 1.436740001013317 2.0060912125186836
    vertex 8.260444336523097 5.75806833197729 2.0060912125186836
  endloop
endfacet
facet normal 2.8297034381593984e-08 0.9999999999999996 1.6542539969281233e-09
  outer loop
    vertex 37.15676274342697 22.266078032517964 2.0065188875069047
    vertex 37.86135213090118 22.266078005958295 6.00394880302606
    vertex 37.85944193023722 22.266078005958295 2.006442157725462
  endloop
endfacet
facet normal 2.8297034381593984e-08 0.9999999999999996 1.6542539969281233e-09
  outer loop
    vertex 37.86135213090118 22.266078005958295 6.00394880302606
    vertex 37.15676274342697 22.266078032517964 2.0065188875069047
    vertex 37.15676274342697 22.266078019238126 6.00394880302606
  endloop
endfacet
facet normal 7.229906472611103e-13 -1.0 6.902271808159057e-14
  outer loop
    vertex 37.85788287815451 9.679331163962358 6.00394880302606
    vertex 36.71841535299373 9.679331163961258 2.0087028471510537
    vertex 37.85623980846391 9.679331163962358 2.008702587005028
  endloop
endfacet
facet normal 7.229906472611103e-13 -1.0 6.902271808159057e-14
  outer loop
    vertex 36.71841535299373 9.679331163961258 2.0087028471510537
    vertex 37.85788287815451 9.679331163962358 6.00394880302606
    vertex 36.71841535299373 9.67933116396181 6.00394880302606
  endloop
endfacet
facet normal 1.9941436121274313e-07 0.9999999999999802 -3.950647304504229e-11
  outer loop
    vertex 3.787581702892978 37.1705805405899 2.004754844153825
    vertex 37.86326230626381 37.17057374556774 6.0025201126774705
    vertex 37.86180951537594 37.17057374556774 2.001231740296418
  endloop
endfacet
facet normal 1.9941436121274313e-07 0.9999999999999802 -3.950647304504229e-11
  outer loop
    vertex 37.86326230626381 37.17057374556774 6.0025201126774705
    vertex 3.787581702892978 37.1705805405899 2.004754844153825
    vertex 3.7877138724499457 37.1705805405899 6.004804444214471
  endloop
endfacet
facet normal 4.6212215211893606e-08 -0.9999999802314139 0.00019883955804016553
  outer loop
    vertex 8.260708675637021 15.758863690219924 6.006091124709944
    vertex 3.7874504193821465 15.758068331977288 2.007130779089731
    vertex 8.260444336523097 15.758068331977288 2.0060912125186836
  endloop
endfacet
facet normal 4.6212215211893606e-08 -0.9999999802314139 0.00019883955804016553
  outer loop
    vertex 3.7874504193821465 15.758068331977288 2.007130779089731
    vertex 8.260708675637021 15.758863690219924 6.006091124709944
    vertex 3.78771475849607 15.758863690219924 6.007130691280992
  endloop
endfacet
facet normal 3.0604786515390405e-08 -0.9999999802314143 0.00019883955907157907
  outer loop
    vertex 13.835806175263865 35.89496092674958 6.003504879097431
    vertex 3.787449533336022 35.894165509512256 2.004754844153825
    vertex 13.835541836149941 35.89416556850695 2.003504966906169
  endloop
endfacet
facet normal 3.0604786515390405e-08 -0.9999999802314143 0.00019883955907157907
  outer loop
    vertex 3.787449533336022 35.894165509512256 2.004754844153825
    vertex 13.835806175263865 35.89496092674958 6.003504879097431
    vertex 3.7877138724499457 35.894960867754904 6.004754756345087
  endloop
endfacet
facet normal -1.6622717812317724e-17 2.419517732376513e-18 -1.0
  outer loop
    vertex 37.860357247982485 37.17048123202362 0.0
    vertex 0.7506439524700177 0.7500186838984223 5.287437154777307e-16
    vertex 0.750162037791312 37.170437028655385 7.049916206369744e-16
  endloop
endfacet
facet normal -1.6622717812317724e-17 2.419517732376513e-18 -1.0
  outer loop
    vertex 0.7506439524700177 0.7500186838984223 5.287437154777307e-16
    vertex 37.860357247982485 37.17048123202362 0.0
    vertex 37.860357247982485 0.7500218839006714 0.0
  endloop
endfacet
facet normal 0.9999999154339907 8.463399042416887e-10 -0.0004112566252336296
  outer loop
    vertex 37.85623980846391 11.952799516806992 2.008711944310758
    vertex 37.85788287815451 9.679331163962358 6.00394880302606
    vertex 37.85623980846391 9.679331163962358 2.008702587005028
  endloop
endfacet
facet normal 0.9999999154339907 8.463399042416887e-10 -0.0004112566252336296
  outer loop
    vertex 37.85788287815451 9.679331163962358 6.00394880302606
    vertex 37.85623980846391 11.952799516806992 2.008711944310758
    vertex 37.85788287815451 11.952799516806992 6.00394880302606
  endloop
endfacet
facet normal -0.9999999992780946 3.799751578656085e-05 -2.614537668978692e-18
  outer loop
    vertex 36.71841535299373 9.67933116396181 6.00394880302606
    vertex 36.718501739143456 11.952799516806992 2.008728751882228
    vertex 36.71841535299373 9.679331163961258 2.0087028471510537
  endloop
endfacet
facet normal -0.9999999992780946 3.799751578656085e-05 -2.614537668978692e-18
  outer loop
    vertex 36.718501739143456 11.952799516806992 2.008728751882228
    vertex 36.71841535299373 9.67933116396181 6.00394880302606
    vertex 36.718501739143456 11.952799516806992 6.00394880302606
  endloop
endfacet
facet normal 0.0 -0.9999999802314143 0.00019883956109408967
  outer loop
    vertex 28.311874445597383 25.704652301307075 6.0037042006019465
    vertex 23.311610106483467 25.70385694306444 2.0037042884106855
    vertex 28.31161010648347 25.70385694306444 2.0037042884106855
  endloop
endfacet
facet normal 0.0 -0.9999999802314143 0.00019883956109408967
  outer loop
    vertex 23.311610106483467 25.70385694306444 2.0037042884106855
    vertex 28.311874445597383 25.704652301307075 6.0037042006019465
    vertex 23.31187444559739 25.704652301307075 6.0037042006019465
  endloop
endfacet
facet normal -0.999999868516499 -0.00046570466444515634 0.0002146768505459458
  outer loop
    vertex 37.86326233156514 35.89496107344866 6.002771470776756
    vertex 37.86180951537594 37.17057374556774 2.001231740296418
    vertex 37.86299799245123 35.89416571520602 2.0027715585854944
  endloop
endfacet
facet normal -0.999999868516499 -0.00046570466444515634 0.0002146768505459458
  outer loop
    vertex 37.86180951537594 37.17057374556774 2.001231740296418
    vertex 37.86326233156514 35.89496107344866 6.002771470776756
    vertex 37.86326230626381 37.17057374556774 6.0025201126774705
  endloop
endfacet
facet normal 0.9999997086764654 -0.00040005039597082427 -0.0006500820448437052
  outer loop
    vertex 37.85944193023722 22.266078005958295 2.006442157725462
    vertex 37.859525947845114 15.979660326219454 6.00394880302606
    vertex 37.85623980846391 15.97965956304704 2.008695136739288
  endloop
endfacet
facet normal 0.9999997086764654 -0.00040005039597082427 -0.0006500820448437052
  outer loop
    vertex 37.859525947845114 15.979660326219454 6.00394880302606
    vertex 37.85944193023722 22.266078005958295 2.006442157725462
    vertex 37.86135213090118 22.266078005958295 6.00394880302606
  endloop
endfacet
facet normal -1.201692119632065e-08 -0.9999999802314141 0.00019883956188860135
  outer loop
    vertex 37.86299799245123 29.24735375855626 2.003948890834798
    vertex 28.311874445597383 29.248149157425004 6.003575878369054
    vertex 28.31161010648347 29.247353799182367 2.003575966177792
  endloop
endfacet
facet normal -1.201692119632065e-08 -0.9999999802314141 0.00019883956188860135
  outer loop
    vertex 28.311874445597383 29.248149157425004 6.003575878369054
    vertex 37.86299799245123 29.24735375855626 2.003948890834798
    vertex 37.86326233156514 29.248149116798906 6.003948803026059
  endloop
endfacet
facet normal 4.172513855207249e-09 -1.0 1.3326633577058907e-08
  outer loop
    vertex 37.860357247982485 0.7500250839029206 6.0
    vertex 3.787450970863207 0.7500248885059371 2.0060912125186827
    vertex 37.860357247982485 0.7500249862044259 2.0060912125186827
  endloop
endfacet
facet normal 4.172513855207249e-09 -1.0 1.3326633577058907e-08
  outer loop
    vertex 3.787450970863207 0.7500248885059371 2.0060912125186827
    vertex 37.860357247982485 0.7500250839029206 6.0
    vertex 3.7874509826701694 0.7500248972667326 6.00035044090445
  endloop
endfacet
facet normal -2.3474480384590626e-07 0.9999999999999512 2.0649212907721847e-07
  outer loop
    vertex 37.15676532216828 5.755263327726123 6.002531525803502
    vertex 37.85623980846391 5.755264317508026 2.007180403608091
    vertex 37.15676532216828 5.7552636576526925 2.007180403608091
  endloop
endfacet
facet normal -2.3474480384590626e-07 0.9999999999999512 2.0649212907721847e-07
  outer loop
    vertex 37.85623980846391 5.755264317508026 2.007180403608091
    vertex 37.15676532216828 5.755263327726123 6.002531525803502
    vertex 37.85786743842906 5.755262997799554 6.002531525803502
  endloop
endfacet
facet normal -0.9999999998603943 -1.4336466636472973e-05 -8.583537578091988e-06
  outer loop
    vertex 0.750673412108501 0.7500191382446597 1.2529844169496733
    vertex 0.750162037791312 37.170437028655385 7.049916206369744e-16
    vertex 0.7506439524700177 0.7500186838984223 5.287437154777307e-16
  endloop
endfacet
facet normal -0.9999999998603943 -1.4336466636472973e-05 -8.583537578091988e-06
  outer loop
    vertex 0.750162037791312 37.170437028655385 7.049916206369744e-16
    vertex 0.750673412108501 0.7500191382446597 1.2529844169496733
    vertex 0.750111051780405 37.170476560987495 1.2523162327672455
  endloop
endfacet
facet normal -0.9999999999999951 9.310582805930743e-08 -3.356632708525388e-08
  outer loop
    vertex 37.15676532216828 5.755263327726123 6.002531525803502
    vertex 37.15676505394963 1.4334610727235217 2.00718040360809
    vertex 37.15676478573098 1.4334610727235217 5.999134152400189
  endloop
endfacet
facet normal -0.9999999999999951 9.310582805930743e-08 -3.356632708525388e-08
  outer loop
    vertex 37.15676505394963 1.4334610727235217 2.00718040360809
    vertex 37.15676532216828 5.755263327726123 6.002531525803502
    vertex 37.15676532216828 5.7552636576526925 2.007180403608091
  endloop
endfacet
facet normal -6.680696732915466e-07 0.999999999870772 -1.606268056683547e-05
  outer loop
    vertex 0.750162037791312 37.170437028655385 7.049916206369744e-16
    vertex 37.86035502272526 37.17048195378503 1.2530456062483954
    vertex 37.860357247982485 37.17048123202362 0.0
  endloop
endfacet
facet normal -6.680696732915466e-07 0.999999999870772 -1.606268056683547e-05
  outer loop
    vertex 37.86035502272526 37.17048195378503 1.2530456062483954
    vertex 0.750162037791312 37.170437028655385 7.049916206369744e-16
    vertex 0.750111051780405 37.170476560987495 1.2523162327672455
  endloop
endfacet
facet normal 9.27418068926328e-06 -6.581242330466767e-06 -0.9999999999353384
  outer loop
    vertex 7.822039217026955e-05 37.92046121784094 1.252311650306434
    vertex 0.750111051780405 37.170476560987495 1.2523162327672455
    vertex 0.0006858226171519988 6.854350729934566e-06 1.2529519489241485
  endloop
endfacet
facet normal 9.27418068926328e-06 -6.581242330466767e-06 -0.9999999999353384
  outer loop
    vertex 0.750111051780405 37.170476560987495 1.2523162327672455
    vertex 7.822039217026955e-05 37.92046121784094 1.252311650306434
    vertex 38.61108040604904 37.92048195378503 1.2530456062483954
  endloop
endfacet
facet normal 9.27418068926328e-06 -6.581242330466767e-06 -0.9999999999353384
  outer loop
    vertex 0.750111051780405 37.170476560987495 1.2523162327672455
    vertex 38.61108040604904 37.92048195378503 1.2530456062483954
    vertex 37.86035502272526 37.17048195378503 1.2530456062483954
  endloop
endfacet
facet normal 9.27418068926328e-06 -6.581242330466767e-06 -0.9999999999353384
  outer loop
    vertex 37.86035502272526 37.17048195378503 1.2530456062483954
    vertex 38.61108040604904 37.92048195378503 1.2530456062483954
    vertex 37.86035502272526 0.750021005660947 1.2530456062483954
  endloop
endfacet
facet normal 9.27418068926328e-06 -6.581242330466767e-06 -0.9999999999353384
  outer loop
    vertex 37.86035502272526 0.750021005660947 1.2530456062483954
    vertex 38.61108040604904 37.92048195378503 1.2530456062483954
    vertex 38.610355022725265 8.526803671315973e-06 1.25261319019994
  endloop
endfacet
facet normal 9.27418068926328e-06 -6.581242330466767e-06 -0.9999999999353384
  outer loop
    vertex 0.0006858226171519988 6.854350729934566e-06 1.2529519489241485
    vertex 0.750673412108501 0.7500191382446597 1.2529844169496733
    vertex 38.610355022725265 8.526803671315973e-06 1.25261319019994
  endloop
endfacet
facet normal 9.27418068926328e-06 -6.581242330466767e-06 -0.9999999999353384
  outer loop
    vertex 0.750673412108501 0.7500191382446597 1.2529844169496733
    vertex 0.0006858226171519988 6.854350729934566e-06 1.2529519489241485
    vertex 0.750111051780405 37.170476560987495 1.2523162327672455
  endloop
endfacet
facet normal 9.27418068926328e-06 -6.581242330466767e-06 -0.9999999999353384
  outer loop
    vertex 38.610355022725265 8.526803671315973e-06 1.25261319019994
    vertex 0.750673412108501 0.7500191382446597 1.2529844169496733
    vertex 37.86035502272526 0.750021005660947 1.2530456062483954
  endloop
endfacet
facet normal 1.0 0.0 0.0
  outer loop
    vertex 37.860357247982485 0.7500218839006714 0.0
    vertex 37.86035502272526 37.17048195378503 1.2530456062483954
    vertex 37.86035502272526 0.750021005660947 1.2530456062483954
  endloop
endfacet
facet normal 1.0 0.0 0.0
  outer loop
    vertex 37.86035502272526 37.17048195378503 1.2530456062483954
    vertex 37.860357247982485 0.7500218839006714 0.0
    vertex 37.860357247982485 37.17048123202362 0.0
  endloop
endfacet
endsolid HousingBottom
